%TF.GenerationSoftware,KiCad,Pcbnew,7.0.6*%
%TF.CreationDate,2023-10-10T10:55:06+08:00*%
%TF.ProjectId,sweepbling-lp__pcb,73776565-7062-46c6-996e-672d6c705f5f,rev?*%
%TF.SameCoordinates,Original*%
%TF.FileFunction,Soldermask,Top*%
%TF.FilePolarity,Negative*%
%FSLAX46Y46*%
G04 Gerber Fmt 4.6, Leading zero omitted, Abs format (unit mm)*
G04 Created by KiCad (PCBNEW 7.0.6) date 2023-10-10 10:55:06*
%MOMM*%
%LPD*%
G01*
G04 APERTURE LIST*
%ADD10C,0.800000*%
%ADD11O,2.000000X1.600000*%
%ADD12C,1.800000*%
%ADD13C,3.400000*%
%ADD14C,3.050000*%
%ADD15C,1.300000*%
%ADD16C,0.500000*%
%ADD17R,1.700000X0.900000*%
%ADD18C,2.200000*%
%ADD19C,1.397000*%
%ADD20C,3.350000*%
%ADD21C,1.000000*%
G04 APERTURE END LIST*
D10*
%TO.C,TRRS1*%
X234874000Y-86052000D03*
X227874000Y-86052000D03*
D11*
X230274000Y-88352000D03*
X233274000Y-88352000D03*
X225174000Y-83752000D03*
X226274000Y-88352000D03*
%TD*%
D12*
%TO.C,SW13*%
X181356000Y-64516000D03*
D13*
X175856000Y-64516000D03*
D14*
X175856000Y-70416000D03*
D12*
X170356000Y-64516000D03*
D14*
X170856000Y-68316000D03*
D15*
X181076000Y-60316000D03*
%TD*%
D12*
%TO.C,SW17*%
X227149140Y-100832000D03*
D14*
X216155873Y-98872897D03*
D15*
X229006653Y-97054693D03*
D12*
X217622860Y-95332000D03*
D14*
X219436000Y-103191550D03*
D13*
X222386000Y-98082000D03*
%TD*%
D15*
%TO.C,SW12*%
X163076000Y-67174000D03*
D13*
X157856000Y-71374000D03*
D14*
X152856000Y-75174000D03*
D12*
X152356000Y-71374000D03*
D14*
X157856000Y-77274000D03*
D12*
X163356000Y-71374000D03*
%TD*%
D15*
%TO.C,SW16*%
X209955173Y-87376147D03*
D12*
X198513408Y-88658495D03*
D14*
X198012858Y-92458423D03*
X202298968Y-95780962D03*
D12*
X209138592Y-91505505D03*
D13*
X203826000Y-90082000D03*
%TD*%
D14*
%TO.C,SW14*%
X193856000Y-75750000D03*
X188856000Y-73650000D03*
D13*
X193856000Y-69850000D03*
D15*
X199076000Y-65650000D03*
D12*
X199356000Y-69850000D03*
X188356000Y-69850000D03*
%TD*%
D13*
%TO.C,SW15*%
X211836000Y-72390000D03*
D14*
X206836000Y-76190000D03*
D12*
X206336000Y-72390000D03*
D15*
X217056000Y-68190000D03*
D14*
X211836000Y-78290000D03*
D12*
X217336000Y-72390000D03*
%TD*%
D14*
%TO.C,SW3*%
X175856000Y-36282000D03*
D13*
X175856000Y-30382000D03*
D12*
X170356000Y-30382000D03*
D14*
X170856000Y-34182000D03*
D15*
X181076000Y-26182000D03*
D12*
X181356000Y-30382000D03*
%TD*%
D14*
%TO.C,SW2*%
X157856000Y-43282000D03*
D12*
X163356000Y-37382000D03*
X152356000Y-37382000D03*
D13*
X157856000Y-37382000D03*
D15*
X163076000Y-33182000D03*
D14*
X152856000Y-41182000D03*
%TD*%
D12*
%TO.C,SW7*%
X163356000Y-54356000D03*
D14*
X157856000Y-60256000D03*
D12*
X152356000Y-54356000D03*
D13*
X157856000Y-54356000D03*
D14*
X152856000Y-58156000D03*
D15*
X163076000Y-50156000D03*
%TD*%
D12*
%TO.C,SW11*%
X145356000Y-83382000D03*
X134356000Y-83382000D03*
D14*
X144856000Y-79582000D03*
X139856000Y-77482000D03*
D13*
X139856000Y-83382000D03*
D15*
X134636000Y-87582000D03*
%TD*%
%TO.C,SW10*%
X217056000Y-51172000D03*
D12*
X206336000Y-55372000D03*
D13*
X211836000Y-55372000D03*
D14*
X211836000Y-61272000D03*
D12*
X217336000Y-55372000D03*
D14*
X206836000Y-59172000D03*
%TD*%
%TO.C,SW9*%
X188856000Y-56632000D03*
D12*
X199356000Y-52832000D03*
D14*
X193856000Y-58732000D03*
D13*
X193856000Y-52832000D03*
D15*
X199076000Y-48632000D03*
D12*
X188356000Y-52832000D03*
%TD*%
%TO.C,SW6*%
X134356000Y-66382000D03*
D14*
X144856000Y-62582000D03*
D12*
X145356000Y-66382000D03*
D14*
X139856000Y-60482000D03*
D13*
X139856000Y-66382000D03*
D15*
X134636000Y-70582000D03*
%TD*%
%TO.C,SW5*%
X217076000Y-34182000D03*
D12*
X206356000Y-38382000D03*
X217356000Y-38382000D03*
D13*
X211856000Y-38382000D03*
D14*
X206856000Y-42182000D03*
X211856000Y-44282000D03*
%TD*%
%TO.C,SW4*%
X193856000Y-41782000D03*
D13*
X193856000Y-35882000D03*
D15*
X199076000Y-31682000D03*
D12*
X188356000Y-35882000D03*
D14*
X188856000Y-39682000D03*
D12*
X199356000Y-35882000D03*
%TD*%
D14*
%TO.C,SW1*%
X144856000Y-45582000D03*
D12*
X134356000Y-49382000D03*
D15*
X134636000Y-53582000D03*
D13*
X139856000Y-49382000D03*
D12*
X145356000Y-49382000D03*
D14*
X139856000Y-43482000D03*
%TD*%
D16*
%TO.C,mouse-bite-2mm-slot2*%
X129286000Y-53340000D03*
X129286000Y-50292000D03*
X129286000Y-51308000D03*
X131318000Y-50292000D03*
X131318000Y-51308000D03*
X129286000Y-52324000D03*
X131318000Y-52324000D03*
X131318000Y-53340000D03*
X131318000Y-49276000D03*
X129286000Y-49276000D03*
%TD*%
%TO.C,mouse-bite-2mm-slot1*%
X131318000Y-77216000D03*
X131318000Y-74168000D03*
X129286000Y-74168000D03*
X129286000Y-77216000D03*
X129286000Y-75184000D03*
X131318000Y-75184000D03*
X131318000Y-76200000D03*
X129286000Y-73152000D03*
X129286000Y-76200000D03*
X131318000Y-73152000D03*
%TD*%
D17*
%TO.C,RSW1*%
X222377000Y-87425000D03*
X222377000Y-84025000D03*
%TD*%
D14*
%TO.C,SW8*%
X175856000Y-53398000D03*
D12*
X170356000Y-47498000D03*
X181356000Y-47498000D03*
D15*
X181076000Y-43298000D03*
D13*
X175856000Y-47498000D03*
D14*
X170856000Y-51298000D03*
%TD*%
D18*
%TO.C,e*%
X166306000Y-46282000D03*
X185356000Y-27232000D03*
X204406000Y-46282000D03*
X185356000Y-65332000D03*
%TD*%
D19*
%TO.C,Bat+1*%
X235966000Y-50800000D03*
%TD*%
%TO.C,BatGND1*%
X224282000Y-50800000D03*
%TD*%
D10*
%TO.C,TRRS2*%
X25476000Y-86052000D03*
X32476000Y-86052000D03*
D11*
X30076000Y-83752000D03*
X27076000Y-83752000D03*
X35176000Y-88352000D03*
X34076000Y-83752000D03*
%TD*%
D12*
%TO.C,SW15_r1*%
X54186000Y-72390000D03*
D15*
X43466000Y-76590000D03*
D14*
X48686000Y-66490000D03*
X53686000Y-68590000D03*
D12*
X43186000Y-72390000D03*
D13*
X48686000Y-72390000D03*
%TD*%
D14*
%TO.C,SW9_r1*%
X66700000Y-58732000D03*
X61700000Y-56632000D03*
D12*
X72200000Y-52832000D03*
D15*
X71920000Y-48632000D03*
D13*
X66700000Y-52832000D03*
D12*
X61200000Y-52832000D03*
%TD*%
D13*
%TO.C,SW13_r1*%
X84688000Y-64516000D03*
D12*
X79188000Y-64516000D03*
D14*
X79688000Y-68316000D03*
X84688000Y-70416000D03*
D15*
X89908000Y-60316000D03*
D12*
X90188000Y-64516000D03*
%TD*%
D14*
%TO.C,SW12_r1*%
X97714000Y-75174000D03*
D15*
X107934000Y-67174000D03*
D13*
X102714000Y-71374000D03*
D12*
X108214000Y-71374000D03*
D14*
X102714000Y-77274000D03*
D12*
X97214000Y-71374000D03*
%TD*%
%TO.C,SW5_r1*%
X43186000Y-38382000D03*
X54186000Y-38382000D03*
D14*
X48686000Y-32482000D03*
D13*
X48686000Y-38382000D03*
D14*
X53686000Y-34582000D03*
D15*
X43466000Y-42582000D03*
%TD*%
D14*
%TO.C,SW4_r1*%
X66700000Y-41782000D03*
D15*
X71920000Y-31682000D03*
D13*
X66700000Y-35882000D03*
D12*
X61200000Y-35882000D03*
D14*
X61700000Y-39682000D03*
D12*
X72200000Y-35882000D03*
%TD*%
D13*
%TO.C,SW1_r1*%
X120732000Y-49382000D03*
D15*
X125952000Y-45182000D03*
D14*
X120732000Y-55282000D03*
X115732000Y-53182000D03*
D12*
X126232000Y-49382000D03*
X115232000Y-49382000D03*
%TD*%
%TO.C,SW14_r1*%
X61200000Y-69850000D03*
X72200000Y-69850000D03*
D15*
X71920000Y-65650000D03*
D14*
X61700000Y-73650000D03*
X66700000Y-75750000D03*
D13*
X66700000Y-69850000D03*
%TD*%
%TO.C,SW3_r1*%
X84688000Y-30382000D03*
D14*
X84688000Y-36282000D03*
D12*
X90188000Y-30382000D03*
D15*
X89908000Y-26182000D03*
D14*
X79688000Y-34182000D03*
D12*
X79188000Y-30382000D03*
%TD*%
%TO.C,SW11_r1*%
X126232000Y-83382000D03*
D15*
X125952000Y-79182000D03*
D14*
X115732000Y-87182000D03*
X120732000Y-89282000D03*
D12*
X115232000Y-83382000D03*
D13*
X120732000Y-83382000D03*
%TD*%
D14*
%TO.C,SW10_r1*%
X48686000Y-49472000D03*
X53686000Y-51572000D03*
D12*
X43186000Y-55372000D03*
D13*
X48686000Y-55372000D03*
D12*
X54186000Y-55372000D03*
D15*
X43466000Y-59572000D03*
%TD*%
D12*
%TO.C,SW2_r1*%
X108214000Y-37382000D03*
D14*
X97714000Y-41182000D03*
X102714000Y-43282000D03*
D15*
X107934000Y-33182000D03*
D13*
X102714000Y-37382000D03*
D12*
X97214000Y-37382000D03*
%TD*%
D14*
%TO.C,SW7_r1*%
X102714000Y-60256000D03*
D12*
X108214000Y-54356000D03*
X97214000Y-54356000D03*
D15*
X107934000Y-50156000D03*
D13*
X102714000Y-54356000D03*
D14*
X97714000Y-58156000D03*
%TD*%
%TO.C,SW16_r1*%
X55250968Y-84383038D03*
D15*
X52822907Y-95489924D03*
D13*
X56778000Y-90082000D03*
D12*
X51465408Y-91505505D03*
D14*
X60624117Y-85117387D03*
D12*
X62090592Y-88658495D03*
%TD*%
D14*
%TO.C,SW8_r1*%
X79688000Y-51298000D03*
D12*
X79188000Y-47498000D03*
X90188000Y-47498000D03*
D14*
X84688000Y-53398000D03*
D13*
X84688000Y-47498000D03*
D15*
X89908000Y-43298000D03*
%TD*%
%TO.C,SW17_r1*%
X35797347Y-104329307D03*
D13*
X38218000Y-98082000D03*
D12*
X42981140Y-95332000D03*
D14*
X35268000Y-92972450D03*
D12*
X33454860Y-100832000D03*
D14*
X40648127Y-92291103D03*
%TD*%
%TO.C,SW6_r1*%
X120732000Y-72282000D03*
X115732000Y-70182000D03*
D12*
X115232000Y-66382000D03*
D15*
X125952000Y-62182000D03*
D13*
X120732000Y-66382000D03*
D12*
X126232000Y-66382000D03*
%TD*%
D18*
%TO.C,REF_PUCK_R*%
X75692000Y-65332000D03*
X94742000Y-46282000D03*
X75692000Y-27232000D03*
X56642000Y-46282000D03*
%TD*%
D19*
%TO.C,BatGNDr1*%
X36068000Y-50800000D03*
%TD*%
%TO.C,Bat+r1*%
X24638000Y-50800000D03*
%TD*%
D17*
%TO.C,RSW2*%
X37973000Y-87425000D03*
X37973000Y-84025000D03*
%TD*%
D20*
%TO.C,REF\u002A\u002A*%
X203918000Y-28194000D03*
%TD*%
%TO.C,REF\u002A\u002A*%
X56642000Y-28194000D03*
%TD*%
%TO.C,REF\u002A\u002A*%
X110109000Y-82419610D03*
%TD*%
%TO.C,REF\u002A\u002A*%
X28956000Y-91567000D03*
%TD*%
%TO.C,REF\u002A\u002A*%
X231648000Y-91567000D03*
%TD*%
%TO.C,REF\u002A\u002A*%
X150479000Y-82419610D03*
%TD*%
%TO.C,REF\u002A\u002A*%
X113665000Y-38354000D03*
%TD*%
%TO.C,REF\u002A\u002A*%
X146905000Y-38354000D03*
%TD*%
D21*
%TO.C,SW_POWER1*%
X231624000Y-51816000D03*
X228624000Y-51816000D03*
%TD*%
%TO.C,SW_POWERR1*%
X28980000Y-51816000D03*
X31980000Y-51816000D03*
%TD*%
M02*
