M48
; DRILL file {KiCad 7.0.6} date Tue Oct 10 10:54:59 2023
; FORMAT={-:-/ absolute / inch / decimal}
; #@! TF.CreationDate,2023-10-10T10:54:59+08:00
; #@! TF.GenerationSoftware,Kicad,Pcbnew,7.0.6
; #@! TF.FileFunction,Plated,1,2,PTH
FMAT,2
INCH
; #@! TA.AperFunction,Plated,PTH,ViaDrill
T1C0.0157
; #@! TA.AperFunction,Plated,PTH,ComponentDrill
T2C0.0320
; #@! TA.AperFunction,Plated,PTH,ComponentDrill
T3C0.0354
%
G90
G05
T1
X1.03Y-2.91
X1.1Y-2.905
X1.64Y-1.415
X1.666Y-3.438
X1.8Y-2.36
X2.29Y-2.34
X2.765Y-1.57
X2.982Y-0.944
X3.47Y-1.51
X4.18Y-1.785
X4.89Y-2.105
X6.925Y-1.685
X7.885Y-2.995
X8.48Y-2.34
X8.615Y-2.55
X9.025Y-3.0685
X9.0448Y-3.1252
X9.19Y-2.29
T2
X0.8944Y-2.09
X0.8944Y-2.19
X0.8944Y-2.29
X0.8944Y-2.39
X0.8944Y-2.49
X0.8944Y-2.59
X0.8944Y-2.69
X0.8944Y-2.79
X0.8944Y-2.89
X0.8944Y-2.99
X0.8944Y-3.09
X0.8944Y-3.19
X0.97Y-2.0
X1.42Y-2.0
X1.4936Y-2.09
X1.4936Y-2.19
X1.4936Y-2.29
X1.4936Y-2.39
X1.4936Y-2.49
X1.4936Y-2.59
X1.4936Y-2.69
X1.4936Y-2.79
X1.4936Y-2.89
X1.4936Y-2.99
X1.4936Y-3.09
X1.4936Y-3.19
X8.7626Y-2.09
X8.7626Y-2.19
X8.7626Y-2.29
X8.7626Y-2.39
X8.7626Y-2.49
X8.7626Y-2.59
X8.7626Y-2.69
X8.7626Y-2.79
X8.7626Y-2.89
X8.7626Y-2.99
X8.7626Y-3.09
X8.7626Y-3.19
X8.83Y-2.0
X9.29Y-2.0
X9.3618Y-2.09
X9.3618Y-2.19
X9.3618Y-2.29
X9.3618Y-2.39
X9.3618Y-2.49
X9.3618Y-2.59
X9.3618Y-2.69
X9.3618Y-2.79
X9.3618Y-2.89
X9.3618Y-2.99
X9.3618Y-3.09
X9.3618Y-3.19
T3
G00X1.0581Y-3.2973
M15
G01X1.0739Y-3.2973
M16
G05
G00X1.1762Y-3.2973
M15
G01X1.192Y-3.2973
M16
G05
G00X1.3337Y-3.2973
M15
G01X1.3494Y-3.2973
M16
G05
G00X1.377Y-3.4784
M15
G01X1.3928Y-3.4784
M16
G05
G00X8.873Y-3.2973
M15
G01X8.8572Y-3.2973
M16
G05
G00X8.9163Y-3.4784
M15
G01X8.9006Y-3.4784
M16
G05
G00X9.0738Y-3.4784
M15
G01X9.058Y-3.4784
M16
G05
G00X9.1919Y-3.4784
M15
G01X9.1761Y-3.4784
M16
G05
T0
M30
