%TF.GenerationSoftware,KiCad,Pcbnew,7.0.6*%
%TF.CreationDate,2023-10-10T10:55:06+08:00*%
%TF.ProjectId,sweepbling-lp__pcb,73776565-7062-46c6-996e-672d6c705f5f,rev?*%
%TF.SameCoordinates,Original*%
%TF.FileFunction,Profile,NP*%
%FSLAX46Y46*%
G04 Gerber Fmt 4.6, Leading zero omitted, Abs format (unit mm)*
G04 Created by KiCad (PCBNEW 7.0.6) date 2023-10-10 10:55:06*
%MOMM*%
%LPD*%
G01*
G04 APERTURE LIST*
%TA.AperFunction,Profile*%
%ADD10C,0.050000*%
%TD*%
G04 APERTURE END LIST*
D10*
X131508500Y-77724000D02*
X131506254Y-89547024D01*
X219998001Y-47763999D02*
X219998045Y-30439419D01*
X223714000Y-108050000D02*
G75*
G03*
X226446000Y-107451265I1070000J1650000D01*
G01*
X219998002Y-47763999D02*
G75*
G03*
X222033002Y-49694917I1999998J69999D01*
G01*
X219563295Y-29758876D02*
G75*
G03*
X182067777Y-21502680I-49442795J-135273424D01*
G01*
X178120389Y-21508136D02*
G75*
G03*
X132893000Y-38265000I-253989J-68728094D01*
G01*
X238688000Y-50442000D02*
G75*
G03*
X237938000Y-49692000I-750000J0D01*
G01*
X132893000Y-38265000D02*
G75*
G03*
X131466055Y-40278702I2445000J-3245000D01*
G01*
X131506295Y-89547021D02*
G75*
G03*
X133544000Y-91383118I1978005J146421D01*
G01*
X219998002Y-30439419D02*
G75*
G03*
X219563290Y-29758889I-750002J19D01*
G01*
X223714000Y-108050000D02*
G75*
G03*
X202185134Y-98863946I-44316000J-74040000D01*
G01*
X222033002Y-49694917D02*
X237938000Y-49692000D01*
X202185135Y-98863940D02*
G75*
G03*
X133544000Y-91383120I-69219135J-316475460D01*
G01*
X238688000Y-58420000D02*
X238688000Y-66548000D01*
X236953304Y-88858150D02*
X226446000Y-107451265D01*
X236953326Y-88858161D02*
G75*
G03*
X238699999Y-81534000I-15027226J7454061D01*
G01*
X182067777Y-21502679D02*
X178120389Y-21508139D01*
X238688000Y-50442000D02*
X238688000Y-58420000D01*
X131466055Y-40278702D02*
X131572000Y-48768000D01*
X129349500Y-48768000D02*
X128960000Y-48768000D01*
X238688000Y-66548000D02*
X238688000Y-75438000D01*
X238688000Y-75438000D02*
X238700000Y-81534000D01*
X129349500Y-72644000D02*
X128960000Y-72644000D01*
X129349500Y-53848000D02*
X128960000Y-53848000D01*
X129349500Y-77724000D02*
X128960000Y-77724000D01*
X131572000Y-53848000D02*
X131572000Y-72644000D01*
X78412223Y-21502679D02*
X82613611Y-21508139D01*
X21792000Y-50442000D02*
X21792000Y-58420000D01*
X128960000Y-77724000D02*
X128975507Y-89545022D01*
X129013944Y-40278702D02*
G75*
G03*
X127586999Y-38265001I-3871944J-1231298D01*
G01*
X126936000Y-91383121D02*
G75*
G03*
X128975506Y-89545022I59500J1984521D01*
G01*
X40481999Y-47763999D02*
X40481955Y-30439419D01*
X21792000Y-66548000D02*
X21792000Y-73914000D01*
X23526696Y-88858150D02*
X34034000Y-107451265D01*
X38446998Y-49694917D02*
G75*
G03*
X40481998Y-47763999I35002J2000917D01*
G01*
X78412223Y-21502679D02*
G75*
G03*
X40916710Y-29758890I11947327J-143529581D01*
G01*
X126936000Y-91383119D02*
G75*
G03*
X58294866Y-98863946I578050J-323956411D01*
G01*
X21779999Y-81534000D02*
G75*
G03*
X23526696Y-88858150I16773851J129950D01*
G01*
X22542000Y-49692000D02*
G75*
G03*
X21792000Y-50442000I0J-750000D01*
G01*
X38446998Y-49694917D02*
X22542000Y-49692000D01*
X21792000Y-58420000D02*
X21792000Y-66548000D01*
X40916692Y-29758850D02*
G75*
G03*
X40481955Y-30439419I315308J-680550D01*
G01*
X34034001Y-107451264D02*
G75*
G03*
X36766000Y-108049999I1661999J1051264D01*
G01*
X127586989Y-38265013D02*
G75*
G03*
X82613611Y-21508139I-44973389J-51973087D01*
G01*
X58294866Y-98863947D02*
G75*
G03*
X36766000Y-108050001I22787134J-83226053D01*
G01*
X21792000Y-73914000D02*
X21780000Y-81534000D01*
X128960000Y-53848000D02*
X128960000Y-72644000D01*
X129013945Y-40278702D02*
X128960000Y-48768000D01*
X131572000Y-48768000D02*
X131254500Y-48768000D01*
X129349502Y-72643999D02*
G75*
G03*
X131254498Y-72644000I952498J380999D01*
G01*
X131572000Y-53848000D02*
X131254500Y-53848000D01*
X131254498Y-77724001D02*
G75*
G03*
X129349502Y-77724000I-952498J-380999D01*
G01*
X131572000Y-72644000D02*
X131254500Y-72644000D01*
X129349502Y-48767999D02*
G75*
G03*
X131254498Y-48768000I952498J380999D01*
G01*
X131508500Y-77724000D02*
X131254500Y-77724000D01*
X131254498Y-53848001D02*
G75*
G03*
X129349502Y-53848000I-952498J-380999D01*
G01*
M02*
