M48
; DRILL file {KiCad 7.0.6} date Tue Oct 10 10:54:59 2023
; FORMAT={-:-/ absolute / inch / decimal}
; #@! TF.CreationDate,2023-10-10T10:54:59+08:00
; #@! TF.GenerationSoftware,Kicad,Pcbnew,7.0.6
; #@! TF.FileFunction,NonPlated,1,2,NPTH
FMAT,2
INCH
; #@! TA.AperFunction,NonPlated,NPTH,ComponentDrill
T1C0.0197
; #@! TA.AperFunction,NonPlated,NPTH,ComponentDrill
T2C0.0315
; #@! TA.AperFunction,NonPlated,NPTH,ComponentDrill
T3C0.0354
; #@! TA.AperFunction,NonPlated,NPTH,ComponentDrill
T4C0.0512
; #@! TA.AperFunction,NonPlated,NPTH,ComponentDrill
T5C0.0709
; #@! TA.AperFunction,NonPlated,NPTH,ComponentDrill
T6C0.0866
; #@! TA.AperFunction,NonPlated,NPTH,ComponentDrill
T7C0.1201
; #@! TA.AperFunction,NonPlated,NPTH,ComponentDrill
T8C0.1319
; #@! TA.AperFunction,NonPlated,NPTH,ComponentDrill
T9C0.1339
%
G90
G05
T1
X5.09Y-1.94
X5.09Y-1.98
X5.09Y-2.02
X5.09Y-2.06
X5.09Y-2.1
X5.09Y-2.88
X5.09Y-2.92
X5.09Y-2.96
X5.09Y-3.0
X5.09Y-3.04
X5.17Y-1.94
X5.17Y-1.98
X5.17Y-2.02
X5.17Y-2.06
X5.17Y-2.1
X5.17Y-2.88
X5.17Y-2.92
X5.17Y-2.96
X5.17Y-3.0
X5.17Y-3.04
T2
X1.003Y-3.3879
X1.2786Y-3.3879
X8.9714Y-3.3879
X9.247Y-3.3879
T3
X1.1409Y-2.04
X1.2591Y-2.04
X9.0009Y-2.04
X9.1191Y-2.04
T4
X1.4093Y-4.1075
X1.7113Y-1.6765
X1.7113Y-2.3454
X1.7113Y-3.0154
X2.0796Y-3.7594
X2.8315Y-1.2473
X2.8315Y-1.9146
X2.8315Y-2.5846
X3.5397Y-1.0308
X3.5397Y-1.7046
X3.5397Y-2.3746
X4.2494Y-1.3064
X4.2494Y-1.9746
X4.2494Y-2.6446
X4.9587Y-1.7788
X4.9587Y-2.4481
X4.9587Y-3.1174
X5.3006Y-2.1095
X5.3006Y-2.7788
X5.3006Y-3.4481
X6.4203Y-1.3064
X6.4203Y-1.9746
X6.4203Y-2.6446
X7.129Y-1.0308
X7.129Y-1.7046
X7.129Y-2.3746
X7.8376Y-1.2473
X7.8376Y-1.9146
X7.8376Y-2.5846
X8.266Y-3.44
X8.5455Y-2.0146
X8.5455Y-2.6846
X8.5463Y-1.3457
X9.016Y-3.8211
T5
X1.3171Y-3.9698
X1.6922Y-3.7532
X1.7002Y-1.5111
X1.7002Y-2.18
X1.7002Y-2.85
X2.0262Y-3.6026
X2.1333Y-1.5111
X2.1333Y-2.18
X2.1333Y-2.85
X2.4094Y-1.4127
X2.4094Y-2.08
X2.4094Y-2.75
X2.4445Y-3.4905
X2.8425Y-1.4127
X2.8425Y-2.08
X2.8425Y-2.75
X3.1176Y-1.1961
X3.1176Y-1.87
X3.1176Y-2.54
X3.5507Y-1.1961
X3.5507Y-1.87
X3.5507Y-2.54
X3.8273Y-1.4717
X3.8273Y-2.14
X3.8273Y-2.81
X4.2604Y-1.4717
X4.2604Y-2.14
X4.2604Y-2.81
X4.5367Y-1.9442
X4.5367Y-2.6135
X4.5367Y-3.2828
X4.9698Y-1.9442
X4.9698Y-2.6135
X4.9698Y-3.2828
X5.2896Y-1.9442
X5.2896Y-2.6135
X5.2896Y-3.2828
X5.7227Y-1.9442
X5.7227Y-2.6135
X5.7227Y-3.2828
X5.9983Y-1.4717
X5.9983Y-2.14
X5.9983Y-2.81
X6.4313Y-1.4717
X6.4313Y-2.14
X6.4313Y-2.81
X6.7069Y-1.1961
X6.7069Y-1.87
X6.7069Y-2.54
X7.14Y-1.1961
X7.14Y-1.87
X7.14Y-2.54
X7.4156Y-1.4127
X7.4156Y-2.08
X7.4156Y-2.75
X7.8155Y-3.4905
X7.8487Y-1.4127
X7.8487Y-2.08
X7.8487Y-2.75
X8.1235Y-2.18
X8.1235Y-2.85
X8.1243Y-1.5111
X8.2338Y-3.6026
X8.5565Y-2.18
X8.5565Y-2.85
X8.5573Y-1.5111
X8.5678Y-3.7532
X8.9429Y-3.9698
T6
X2.23Y-1.8221
X2.98Y-1.0721
X2.98Y-2.5721
X3.73Y-1.8221
X6.5475Y-1.8221
X7.2975Y-1.0721
X7.2975Y-2.5721
X8.0475Y-1.8221
T7
X1.3885Y-3.6603
X1.6003Y-3.6335
X1.9168Y-1.2788
X1.9168Y-1.9477
X1.9168Y-2.6177
X2.1136Y-1.3615
X2.1136Y-2.0304
X2.1136Y-2.7004
X2.1752Y-3.3222
X2.3868Y-3.3511
X2.4291Y-1.5623
X2.4291Y-2.2296
X2.4291Y-2.8996
X2.626Y-1.645
X2.626Y-2.3123
X2.626Y-2.9823
X3.1373Y-1.3457
X3.1373Y-2.0196
X3.1373Y-2.6896
X3.3342Y-1.4284
X3.3342Y-2.1023
X3.3342Y-2.7723
X3.847Y-1.6213
X3.847Y-2.2896
X3.847Y-2.9596
X4.0439Y-1.704
X4.0439Y-2.3723
X4.0439Y-3.0423
X4.5564Y-2.0938
X4.5564Y-2.7631
X4.5564Y-3.4324
X4.7532Y-2.1765
X4.7532Y-2.8457
X4.7532Y-3.515
X5.5061Y-1.7119
X5.5061Y-2.3812
X5.5061Y-3.0505
X5.703Y-1.7946
X5.703Y-2.4639
X5.703Y-3.1331
X6.018Y-1.6213
X6.018Y-2.2896
X6.018Y-2.9596
X6.2148Y-1.704
X6.2148Y-2.3723
X6.2148Y-3.0423
X6.7266Y-1.3457
X6.7266Y-2.0196
X6.7266Y-2.6896
X6.9235Y-1.4284
X6.9235Y-2.1023
X6.9235Y-2.7723
X7.4353Y-1.5623
X7.4353Y-2.2296
X7.4353Y-2.8996
X7.6321Y-1.645
X7.6321Y-2.3123
X7.6321Y-2.9823
X7.7958Y-3.6401
X7.9645Y-3.7709
X8.1431Y-2.3296
X8.1431Y-2.9996
X8.1439Y-1.6607
X8.34Y-2.4123
X8.34Y-3.0823
X8.3408Y-1.7434
X8.5101Y-3.8926
X8.6392Y-4.0627
T8
X1.14Y-3.605
X2.23Y-1.11
X4.335Y-3.2449
X4.475Y-1.51
X5.7837Y-1.51
X5.9244Y-3.2449
X8.0283Y-1.11
X9.12Y-3.605
T9
X1.5046Y-3.8615
X1.9168Y-1.5111
X1.9168Y-2.18
X1.9168Y-2.85
X2.2354Y-3.5465
X2.626Y-1.4127
X2.626Y-2.08
X2.626Y-2.75
X3.3342Y-1.1961
X3.3342Y-1.87
X3.3342Y-2.54
X4.0439Y-1.4717
X4.0439Y-2.14
X4.0439Y-2.81
X4.7532Y-1.9442
X4.7532Y-2.6135
X4.7532Y-3.2828
X5.5061Y-1.9442
X5.5061Y-2.6135
X5.5061Y-3.2828
X6.2148Y-1.4717
X6.2148Y-2.14
X6.2148Y-2.81
X6.9235Y-1.1961
X6.9235Y-1.87
X6.9235Y-2.54
X7.6321Y-1.4127
X7.6321Y-2.08
X7.6321Y-2.75
X8.0246Y-3.5465
X8.34Y-2.18
X8.34Y-2.85
X8.3408Y-1.5111
X8.7554Y-3.8615
T0
M30
