%TF.GenerationSoftware,KiCad,Pcbnew,7.0.6*%
%TF.CreationDate,2023-10-10T10:55:06+08:00*%
%TF.ProjectId,sweepbling-lp__pcb,73776565-7062-46c6-996e-672d6c705f5f,rev?*%
%TF.SameCoordinates,Original*%
%TF.FileFunction,Legend,Top*%
%TF.FilePolarity,Positive*%
%FSLAX46Y46*%
G04 Gerber Fmt 4.6, Leading zero omitted, Abs format (unit mm)*
G04 Created by KiCad (PCBNEW 7.0.6) date 2023-10-10 10:55:06*
%MOMM*%
%LPD*%
G01*
G04 APERTURE LIST*
%ADD10C,0.300000*%
%ADD11C,0.150000*%
%ADD12C,0.120000*%
%ADD13C,0.125000*%
%ADD14C,0.100000*%
%ADD15C,0.200000*%
%ADD16C,0.010000*%
%ADD17C,1.524000*%
%ADD18C,1.397000*%
G04 APERTURE END LIST*
D10*
X230270614Y-72198857D02*
X230270614Y-72698857D01*
X231056328Y-72698857D02*
X229556328Y-72698857D01*
X229556328Y-72698857D02*
X229556328Y-71984571D01*
X231056328Y-70770286D02*
X230270614Y-70770286D01*
X230270614Y-70770286D02*
X230127757Y-70841714D01*
X230127757Y-70841714D02*
X230056328Y-70984571D01*
X230056328Y-70984571D02*
X230056328Y-71270286D01*
X230056328Y-71270286D02*
X230127757Y-71413143D01*
X230984900Y-70770286D02*
X231056328Y-70913143D01*
X231056328Y-70913143D02*
X231056328Y-71270286D01*
X231056328Y-71270286D02*
X230984900Y-71413143D01*
X230984900Y-71413143D02*
X230842042Y-71484571D01*
X230842042Y-71484571D02*
X230699185Y-71484571D01*
X230699185Y-71484571D02*
X230556328Y-71413143D01*
X230556328Y-71413143D02*
X230484900Y-71270286D01*
X230484900Y-71270286D02*
X230484900Y-70913143D01*
X230484900Y-70913143D02*
X230413471Y-70770286D01*
X230984900Y-69413143D02*
X231056328Y-69556000D01*
X231056328Y-69556000D02*
X231056328Y-69841714D01*
X231056328Y-69841714D02*
X230984900Y-69984571D01*
X230984900Y-69984571D02*
X230913471Y-70056000D01*
X230913471Y-70056000D02*
X230770614Y-70127428D01*
X230770614Y-70127428D02*
X230342042Y-70127428D01*
X230342042Y-70127428D02*
X230199185Y-70056000D01*
X230199185Y-70056000D02*
X230127757Y-69984571D01*
X230127757Y-69984571D02*
X230056328Y-69841714D01*
X230056328Y-69841714D02*
X230056328Y-69556000D01*
X230056328Y-69556000D02*
X230127757Y-69413143D01*
X230984900Y-68198857D02*
X231056328Y-68341714D01*
X231056328Y-68341714D02*
X231056328Y-68627429D01*
X231056328Y-68627429D02*
X230984900Y-68770286D01*
X230984900Y-68770286D02*
X230842042Y-68841714D01*
X230842042Y-68841714D02*
X230270614Y-68841714D01*
X230270614Y-68841714D02*
X230127757Y-68770286D01*
X230127757Y-68770286D02*
X230056328Y-68627429D01*
X230056328Y-68627429D02*
X230056328Y-68341714D01*
X230056328Y-68341714D02*
X230127757Y-68198857D01*
X230127757Y-68198857D02*
X230270614Y-68127429D01*
X230270614Y-68127429D02*
X230413471Y-68127429D01*
X230413471Y-68127429D02*
X230556328Y-68841714D01*
X231056328Y-65698858D02*
X229556328Y-65698858D01*
X230984900Y-65698858D02*
X231056328Y-65841715D01*
X231056328Y-65841715D02*
X231056328Y-66127429D01*
X231056328Y-66127429D02*
X230984900Y-66270286D01*
X230984900Y-66270286D02*
X230913471Y-66341715D01*
X230913471Y-66341715D02*
X230770614Y-66413143D01*
X230770614Y-66413143D02*
X230342042Y-66413143D01*
X230342042Y-66413143D02*
X230199185Y-66341715D01*
X230199185Y-66341715D02*
X230127757Y-66270286D01*
X230127757Y-66270286D02*
X230056328Y-66127429D01*
X230056328Y-66127429D02*
X230056328Y-65841715D01*
X230056328Y-65841715D02*
X230127757Y-65698858D01*
X231056328Y-64770286D02*
X230984900Y-64913143D01*
X230984900Y-64913143D02*
X230913471Y-64984572D01*
X230913471Y-64984572D02*
X230770614Y-65056000D01*
X230770614Y-65056000D02*
X230342042Y-65056000D01*
X230342042Y-65056000D02*
X230199185Y-64984572D01*
X230199185Y-64984572D02*
X230127757Y-64913143D01*
X230127757Y-64913143D02*
X230056328Y-64770286D01*
X230056328Y-64770286D02*
X230056328Y-64556000D01*
X230056328Y-64556000D02*
X230127757Y-64413143D01*
X230127757Y-64413143D02*
X230199185Y-64341715D01*
X230199185Y-64341715D02*
X230342042Y-64270286D01*
X230342042Y-64270286D02*
X230770614Y-64270286D01*
X230770614Y-64270286D02*
X230913471Y-64341715D01*
X230913471Y-64341715D02*
X230984900Y-64413143D01*
X230984900Y-64413143D02*
X231056328Y-64556000D01*
X231056328Y-64556000D02*
X231056328Y-64770286D01*
X230056328Y-63770286D02*
X231056328Y-63484572D01*
X231056328Y-63484572D02*
X230342042Y-63198857D01*
X230342042Y-63198857D02*
X231056328Y-62913143D01*
X231056328Y-62913143D02*
X230056328Y-62627429D01*
X230056328Y-62056000D02*
X231056328Y-62056000D01*
X230199185Y-62056000D02*
X230127757Y-61984571D01*
X230127757Y-61984571D02*
X230056328Y-61841714D01*
X230056328Y-61841714D02*
X230056328Y-61627428D01*
X230056328Y-61627428D02*
X230127757Y-61484571D01*
X230127757Y-61484571D02*
X230270614Y-61413143D01*
X230270614Y-61413143D02*
X231056328Y-61413143D01*
X29610614Y-71690857D02*
X29610614Y-72190857D01*
X30396328Y-72190857D02*
X28896328Y-72190857D01*
X28896328Y-72190857D02*
X28896328Y-71476571D01*
X30396328Y-70262286D02*
X29610614Y-70262286D01*
X29610614Y-70262286D02*
X29467757Y-70333714D01*
X29467757Y-70333714D02*
X29396328Y-70476571D01*
X29396328Y-70476571D02*
X29396328Y-70762286D01*
X29396328Y-70762286D02*
X29467757Y-70905143D01*
X30324900Y-70262286D02*
X30396328Y-70405143D01*
X30396328Y-70405143D02*
X30396328Y-70762286D01*
X30396328Y-70762286D02*
X30324900Y-70905143D01*
X30324900Y-70905143D02*
X30182042Y-70976571D01*
X30182042Y-70976571D02*
X30039185Y-70976571D01*
X30039185Y-70976571D02*
X29896328Y-70905143D01*
X29896328Y-70905143D02*
X29824900Y-70762286D01*
X29824900Y-70762286D02*
X29824900Y-70405143D01*
X29824900Y-70405143D02*
X29753471Y-70262286D01*
X30324900Y-68905143D02*
X30396328Y-69048000D01*
X30396328Y-69048000D02*
X30396328Y-69333714D01*
X30396328Y-69333714D02*
X30324900Y-69476571D01*
X30324900Y-69476571D02*
X30253471Y-69548000D01*
X30253471Y-69548000D02*
X30110614Y-69619428D01*
X30110614Y-69619428D02*
X29682042Y-69619428D01*
X29682042Y-69619428D02*
X29539185Y-69548000D01*
X29539185Y-69548000D02*
X29467757Y-69476571D01*
X29467757Y-69476571D02*
X29396328Y-69333714D01*
X29396328Y-69333714D02*
X29396328Y-69048000D01*
X29396328Y-69048000D02*
X29467757Y-68905143D01*
X30324900Y-67690857D02*
X30396328Y-67833714D01*
X30396328Y-67833714D02*
X30396328Y-68119429D01*
X30396328Y-68119429D02*
X30324900Y-68262286D01*
X30324900Y-68262286D02*
X30182042Y-68333714D01*
X30182042Y-68333714D02*
X29610614Y-68333714D01*
X29610614Y-68333714D02*
X29467757Y-68262286D01*
X29467757Y-68262286D02*
X29396328Y-68119429D01*
X29396328Y-68119429D02*
X29396328Y-67833714D01*
X29396328Y-67833714D02*
X29467757Y-67690857D01*
X29467757Y-67690857D02*
X29610614Y-67619429D01*
X29610614Y-67619429D02*
X29753471Y-67619429D01*
X29753471Y-67619429D02*
X29896328Y-68333714D01*
X30396328Y-65190858D02*
X28896328Y-65190858D01*
X30324900Y-65190858D02*
X30396328Y-65333715D01*
X30396328Y-65333715D02*
X30396328Y-65619429D01*
X30396328Y-65619429D02*
X30324900Y-65762286D01*
X30324900Y-65762286D02*
X30253471Y-65833715D01*
X30253471Y-65833715D02*
X30110614Y-65905143D01*
X30110614Y-65905143D02*
X29682042Y-65905143D01*
X29682042Y-65905143D02*
X29539185Y-65833715D01*
X29539185Y-65833715D02*
X29467757Y-65762286D01*
X29467757Y-65762286D02*
X29396328Y-65619429D01*
X29396328Y-65619429D02*
X29396328Y-65333715D01*
X29396328Y-65333715D02*
X29467757Y-65190858D01*
X30396328Y-64262286D02*
X30324900Y-64405143D01*
X30324900Y-64405143D02*
X30253471Y-64476572D01*
X30253471Y-64476572D02*
X30110614Y-64548000D01*
X30110614Y-64548000D02*
X29682042Y-64548000D01*
X29682042Y-64548000D02*
X29539185Y-64476572D01*
X29539185Y-64476572D02*
X29467757Y-64405143D01*
X29467757Y-64405143D02*
X29396328Y-64262286D01*
X29396328Y-64262286D02*
X29396328Y-64048000D01*
X29396328Y-64048000D02*
X29467757Y-63905143D01*
X29467757Y-63905143D02*
X29539185Y-63833715D01*
X29539185Y-63833715D02*
X29682042Y-63762286D01*
X29682042Y-63762286D02*
X30110614Y-63762286D01*
X30110614Y-63762286D02*
X30253471Y-63833715D01*
X30253471Y-63833715D02*
X30324900Y-63905143D01*
X30324900Y-63905143D02*
X30396328Y-64048000D01*
X30396328Y-64048000D02*
X30396328Y-64262286D01*
X29396328Y-63262286D02*
X30396328Y-62976572D01*
X30396328Y-62976572D02*
X29682042Y-62690857D01*
X29682042Y-62690857D02*
X30396328Y-62405143D01*
X30396328Y-62405143D02*
X29396328Y-62119429D01*
X29396328Y-61548000D02*
X30396328Y-61548000D01*
X29539185Y-61548000D02*
X29467757Y-61476571D01*
X29467757Y-61476571D02*
X29396328Y-61333714D01*
X29396328Y-61333714D02*
X29396328Y-61119428D01*
X29396328Y-61119428D02*
X29467757Y-60976571D01*
X29467757Y-60976571D02*
X29610614Y-60905143D01*
X29610614Y-60905143D02*
X30396328Y-60905143D01*
D11*
X22269504Y-50743247D02*
X22383790Y-50781342D01*
X22383790Y-50781342D02*
X22421885Y-50819438D01*
X22421885Y-50819438D02*
X22459981Y-50895628D01*
X22459981Y-50895628D02*
X22459981Y-51009914D01*
X22459981Y-51009914D02*
X22421885Y-51086104D01*
X22421885Y-51086104D02*
X22383790Y-51124200D01*
X22383790Y-51124200D02*
X22307600Y-51162295D01*
X22307600Y-51162295D02*
X22002838Y-51162295D01*
X22002838Y-51162295D02*
X22002838Y-50362295D01*
X22002838Y-50362295D02*
X22269504Y-50362295D01*
X22269504Y-50362295D02*
X22345695Y-50400390D01*
X22345695Y-50400390D02*
X22383790Y-50438485D01*
X22383790Y-50438485D02*
X22421885Y-50514676D01*
X22421885Y-50514676D02*
X22421885Y-50590866D01*
X22421885Y-50590866D02*
X22383790Y-50667057D01*
X22383790Y-50667057D02*
X22345695Y-50705152D01*
X22345695Y-50705152D02*
X22269504Y-50743247D01*
X22269504Y-50743247D02*
X22002838Y-50743247D01*
X22802838Y-50857533D02*
X23412362Y-50857533D01*
X23107600Y-51162295D02*
X23107600Y-50552771D01*
X37661904Y-50743247D02*
X37776190Y-50781342D01*
X37776190Y-50781342D02*
X37814285Y-50819438D01*
X37814285Y-50819438D02*
X37852381Y-50895628D01*
X37852381Y-50895628D02*
X37852381Y-51009914D01*
X37852381Y-51009914D02*
X37814285Y-51086104D01*
X37814285Y-51086104D02*
X37776190Y-51124200D01*
X37776190Y-51124200D02*
X37700000Y-51162295D01*
X37700000Y-51162295D02*
X37395238Y-51162295D01*
X37395238Y-51162295D02*
X37395238Y-50362295D01*
X37395238Y-50362295D02*
X37661904Y-50362295D01*
X37661904Y-50362295D02*
X37738095Y-50400390D01*
X37738095Y-50400390D02*
X37776190Y-50438485D01*
X37776190Y-50438485D02*
X37814285Y-50514676D01*
X37814285Y-50514676D02*
X37814285Y-50590866D01*
X37814285Y-50590866D02*
X37776190Y-50667057D01*
X37776190Y-50667057D02*
X37738095Y-50705152D01*
X37738095Y-50705152D02*
X37661904Y-50743247D01*
X37661904Y-50743247D02*
X37395238Y-50743247D01*
X38195238Y-50857533D02*
X38804762Y-50857533D01*
X221913504Y-50692447D02*
X222027790Y-50730542D01*
X222027790Y-50730542D02*
X222065885Y-50768638D01*
X222065885Y-50768638D02*
X222103981Y-50844828D01*
X222103981Y-50844828D02*
X222103981Y-50959114D01*
X222103981Y-50959114D02*
X222065885Y-51035304D01*
X222065885Y-51035304D02*
X222027790Y-51073400D01*
X222027790Y-51073400D02*
X221951600Y-51111495D01*
X221951600Y-51111495D02*
X221646838Y-51111495D01*
X221646838Y-51111495D02*
X221646838Y-50311495D01*
X221646838Y-50311495D02*
X221913504Y-50311495D01*
X221913504Y-50311495D02*
X221989695Y-50349590D01*
X221989695Y-50349590D02*
X222027790Y-50387685D01*
X222027790Y-50387685D02*
X222065885Y-50463876D01*
X222065885Y-50463876D02*
X222065885Y-50540066D01*
X222065885Y-50540066D02*
X222027790Y-50616257D01*
X222027790Y-50616257D02*
X221989695Y-50654352D01*
X221989695Y-50654352D02*
X221913504Y-50692447D01*
X221913504Y-50692447D02*
X221646838Y-50692447D01*
X222446838Y-50806733D02*
X223056362Y-50806733D01*
X237458304Y-50743247D02*
X237572590Y-50781342D01*
X237572590Y-50781342D02*
X237610685Y-50819438D01*
X237610685Y-50819438D02*
X237648781Y-50895628D01*
X237648781Y-50895628D02*
X237648781Y-51009914D01*
X237648781Y-51009914D02*
X237610685Y-51086104D01*
X237610685Y-51086104D02*
X237572590Y-51124200D01*
X237572590Y-51124200D02*
X237496400Y-51162295D01*
X237496400Y-51162295D02*
X237191638Y-51162295D01*
X237191638Y-51162295D02*
X237191638Y-50362295D01*
X237191638Y-50362295D02*
X237458304Y-50362295D01*
X237458304Y-50362295D02*
X237534495Y-50400390D01*
X237534495Y-50400390D02*
X237572590Y-50438485D01*
X237572590Y-50438485D02*
X237610685Y-50514676D01*
X237610685Y-50514676D02*
X237610685Y-50590866D01*
X237610685Y-50590866D02*
X237572590Y-50667057D01*
X237572590Y-50667057D02*
X237534495Y-50705152D01*
X237534495Y-50705152D02*
X237458304Y-50743247D01*
X237458304Y-50743247D02*
X237191638Y-50743247D01*
X237991638Y-50857533D02*
X238601162Y-50857533D01*
X238296400Y-51162295D02*
X238296400Y-50552771D01*
D12*
X29094286Y-50969731D02*
X29094286Y-50369731D01*
X29094286Y-50369731D02*
X29322857Y-50369731D01*
X29322857Y-50369731D02*
X29380000Y-50398302D01*
X29380000Y-50398302D02*
X29408571Y-50426874D01*
X29408571Y-50426874D02*
X29437143Y-50484017D01*
X29437143Y-50484017D02*
X29437143Y-50569731D01*
X29437143Y-50569731D02*
X29408571Y-50626874D01*
X29408571Y-50626874D02*
X29380000Y-50655445D01*
X29380000Y-50655445D02*
X29322857Y-50684017D01*
X29322857Y-50684017D02*
X29094286Y-50684017D01*
X29808571Y-50369731D02*
X29922857Y-50369731D01*
X29922857Y-50369731D02*
X29980000Y-50398302D01*
X29980000Y-50398302D02*
X30037143Y-50455445D01*
X30037143Y-50455445D02*
X30065714Y-50569731D01*
X30065714Y-50569731D02*
X30065714Y-50769731D01*
X30065714Y-50769731D02*
X30037143Y-50884017D01*
X30037143Y-50884017D02*
X29980000Y-50941160D01*
X29980000Y-50941160D02*
X29922857Y-50969731D01*
X29922857Y-50969731D02*
X29808571Y-50969731D01*
X29808571Y-50969731D02*
X29751429Y-50941160D01*
X29751429Y-50941160D02*
X29694286Y-50884017D01*
X29694286Y-50884017D02*
X29665714Y-50769731D01*
X29665714Y-50769731D02*
X29665714Y-50569731D01*
X29665714Y-50569731D02*
X29694286Y-50455445D01*
X29694286Y-50455445D02*
X29751429Y-50398302D01*
X29751429Y-50398302D02*
X29808571Y-50369731D01*
X30265714Y-50369731D02*
X30408571Y-50969731D01*
X30408571Y-50969731D02*
X30522857Y-50541160D01*
X30522857Y-50541160D02*
X30637142Y-50969731D01*
X30637142Y-50969731D02*
X30780000Y-50369731D01*
X31008571Y-50655445D02*
X31208571Y-50655445D01*
X31294285Y-50969731D02*
X31008571Y-50969731D01*
X31008571Y-50969731D02*
X31008571Y-50369731D01*
X31008571Y-50369731D02*
X31294285Y-50369731D01*
X31894285Y-50969731D02*
X31694285Y-50684017D01*
X31551428Y-50969731D02*
X31551428Y-50369731D01*
X31551428Y-50369731D02*
X31779999Y-50369731D01*
X31779999Y-50369731D02*
X31837142Y-50398302D01*
X31837142Y-50398302D02*
X31865713Y-50426874D01*
X31865713Y-50426874D02*
X31894285Y-50484017D01*
X31894285Y-50484017D02*
X31894285Y-50569731D01*
X31894285Y-50569731D02*
X31865713Y-50626874D01*
X31865713Y-50626874D02*
X31837142Y-50655445D01*
X31837142Y-50655445D02*
X31779999Y-50684017D01*
X31779999Y-50684017D02*
X31551428Y-50684017D01*
X228636686Y-51122131D02*
X228636686Y-50522131D01*
X228636686Y-50522131D02*
X228865257Y-50522131D01*
X228865257Y-50522131D02*
X228922400Y-50550702D01*
X228922400Y-50550702D02*
X228950971Y-50579274D01*
X228950971Y-50579274D02*
X228979543Y-50636417D01*
X228979543Y-50636417D02*
X228979543Y-50722131D01*
X228979543Y-50722131D02*
X228950971Y-50779274D01*
X228950971Y-50779274D02*
X228922400Y-50807845D01*
X228922400Y-50807845D02*
X228865257Y-50836417D01*
X228865257Y-50836417D02*
X228636686Y-50836417D01*
X229350971Y-50522131D02*
X229465257Y-50522131D01*
X229465257Y-50522131D02*
X229522400Y-50550702D01*
X229522400Y-50550702D02*
X229579543Y-50607845D01*
X229579543Y-50607845D02*
X229608114Y-50722131D01*
X229608114Y-50722131D02*
X229608114Y-50922131D01*
X229608114Y-50922131D02*
X229579543Y-51036417D01*
X229579543Y-51036417D02*
X229522400Y-51093560D01*
X229522400Y-51093560D02*
X229465257Y-51122131D01*
X229465257Y-51122131D02*
X229350971Y-51122131D01*
X229350971Y-51122131D02*
X229293829Y-51093560D01*
X229293829Y-51093560D02*
X229236686Y-51036417D01*
X229236686Y-51036417D02*
X229208114Y-50922131D01*
X229208114Y-50922131D02*
X229208114Y-50722131D01*
X229208114Y-50722131D02*
X229236686Y-50607845D01*
X229236686Y-50607845D02*
X229293829Y-50550702D01*
X229293829Y-50550702D02*
X229350971Y-50522131D01*
X229808114Y-50522131D02*
X229950971Y-51122131D01*
X229950971Y-51122131D02*
X230065257Y-50693560D01*
X230065257Y-50693560D02*
X230179542Y-51122131D01*
X230179542Y-51122131D02*
X230322400Y-50522131D01*
X230550971Y-50807845D02*
X230750971Y-50807845D01*
X230836685Y-51122131D02*
X230550971Y-51122131D01*
X230550971Y-51122131D02*
X230550971Y-50522131D01*
X230550971Y-50522131D02*
X230836685Y-50522131D01*
X231436685Y-51122131D02*
X231236685Y-50836417D01*
X231093828Y-51122131D02*
X231093828Y-50522131D01*
X231093828Y-50522131D02*
X231322399Y-50522131D01*
X231322399Y-50522131D02*
X231379542Y-50550702D01*
X231379542Y-50550702D02*
X231408113Y-50579274D01*
X231408113Y-50579274D02*
X231436685Y-50636417D01*
X231436685Y-50636417D02*
X231436685Y-50722131D01*
X231436685Y-50722131D02*
X231408113Y-50779274D01*
X231408113Y-50779274D02*
X231379542Y-50807845D01*
X231379542Y-50807845D02*
X231322399Y-50836417D01*
X231322399Y-50836417D02*
X231093828Y-50836417D01*
X227681571Y-48954724D02*
X227681571Y-48204724D01*
X227681571Y-48204724D02*
X227931571Y-48740438D01*
X227931571Y-48740438D02*
X228181571Y-48204724D01*
X228181571Y-48204724D02*
X228181571Y-48954724D01*
X228538714Y-48954724D02*
X228538714Y-48454724D01*
X228538714Y-48204724D02*
X228503000Y-48240438D01*
X228503000Y-48240438D02*
X228538714Y-48276152D01*
X228538714Y-48276152D02*
X228574428Y-48240438D01*
X228574428Y-48240438D02*
X228538714Y-48204724D01*
X228538714Y-48204724D02*
X228538714Y-48276152D01*
X229217286Y-48919010D02*
X229145857Y-48954724D01*
X229145857Y-48954724D02*
X229003000Y-48954724D01*
X229003000Y-48954724D02*
X228931571Y-48919010D01*
X228931571Y-48919010D02*
X228895857Y-48883295D01*
X228895857Y-48883295D02*
X228860143Y-48811867D01*
X228860143Y-48811867D02*
X228860143Y-48597581D01*
X228860143Y-48597581D02*
X228895857Y-48526152D01*
X228895857Y-48526152D02*
X228931571Y-48490438D01*
X228931571Y-48490438D02*
X229003000Y-48454724D01*
X229003000Y-48454724D02*
X229145857Y-48454724D01*
X229145857Y-48454724D02*
X229217286Y-48490438D01*
X229538714Y-48954724D02*
X229538714Y-48454724D01*
X229538714Y-48597581D02*
X229574428Y-48526152D01*
X229574428Y-48526152D02*
X229610143Y-48490438D01*
X229610143Y-48490438D02*
X229681571Y-48454724D01*
X229681571Y-48454724D02*
X229753000Y-48454724D01*
X230110143Y-48954724D02*
X230038714Y-48919010D01*
X230038714Y-48919010D02*
X230003000Y-48883295D01*
X230003000Y-48883295D02*
X229967286Y-48811867D01*
X229967286Y-48811867D02*
X229967286Y-48597581D01*
X229967286Y-48597581D02*
X230003000Y-48526152D01*
X230003000Y-48526152D02*
X230038714Y-48490438D01*
X230038714Y-48490438D02*
X230110143Y-48454724D01*
X230110143Y-48454724D02*
X230217286Y-48454724D01*
X230217286Y-48454724D02*
X230288714Y-48490438D01*
X230288714Y-48490438D02*
X230324429Y-48526152D01*
X230324429Y-48526152D02*
X230360143Y-48597581D01*
X230360143Y-48597581D02*
X230360143Y-48811867D01*
X230360143Y-48811867D02*
X230324429Y-48883295D01*
X230324429Y-48883295D02*
X230288714Y-48919010D01*
X230288714Y-48919010D02*
X230217286Y-48954724D01*
X230217286Y-48954724D02*
X230110143Y-48954724D01*
X230681571Y-48204724D02*
X230681571Y-48811867D01*
X230681571Y-48811867D02*
X230717285Y-48883295D01*
X230717285Y-48883295D02*
X230753000Y-48919010D01*
X230753000Y-48919010D02*
X230824428Y-48954724D01*
X230824428Y-48954724D02*
X230967285Y-48954724D01*
X230967285Y-48954724D02*
X231038714Y-48919010D01*
X231038714Y-48919010D02*
X231074428Y-48883295D01*
X231074428Y-48883295D02*
X231110142Y-48811867D01*
X231110142Y-48811867D02*
X231110142Y-48204724D01*
X231431571Y-48919010D02*
X231538714Y-48954724D01*
X231538714Y-48954724D02*
X231717285Y-48954724D01*
X231717285Y-48954724D02*
X231788714Y-48919010D01*
X231788714Y-48919010D02*
X231824428Y-48883295D01*
X231824428Y-48883295D02*
X231860142Y-48811867D01*
X231860142Y-48811867D02*
X231860142Y-48740438D01*
X231860142Y-48740438D02*
X231824428Y-48669010D01*
X231824428Y-48669010D02*
X231788714Y-48633295D01*
X231788714Y-48633295D02*
X231717285Y-48597581D01*
X231717285Y-48597581D02*
X231574428Y-48561867D01*
X231574428Y-48561867D02*
X231502999Y-48526152D01*
X231502999Y-48526152D02*
X231467285Y-48490438D01*
X231467285Y-48490438D02*
X231431571Y-48419010D01*
X231431571Y-48419010D02*
X231431571Y-48347581D01*
X231431571Y-48347581D02*
X231467285Y-48276152D01*
X231467285Y-48276152D02*
X231502999Y-48240438D01*
X231502999Y-48240438D02*
X231574428Y-48204724D01*
X231574428Y-48204724D02*
X231752999Y-48204724D01*
X231752999Y-48204724D02*
X231860142Y-48240438D01*
X232431571Y-48561867D02*
X232538714Y-48597581D01*
X232538714Y-48597581D02*
X232574428Y-48633295D01*
X232574428Y-48633295D02*
X232610142Y-48704724D01*
X232610142Y-48704724D02*
X232610142Y-48811867D01*
X232610142Y-48811867D02*
X232574428Y-48883295D01*
X232574428Y-48883295D02*
X232538714Y-48919010D01*
X232538714Y-48919010D02*
X232467285Y-48954724D01*
X232467285Y-48954724D02*
X232181571Y-48954724D01*
X232181571Y-48954724D02*
X232181571Y-48204724D01*
X232181571Y-48204724D02*
X232431571Y-48204724D01*
X232431571Y-48204724D02*
X232503000Y-48240438D01*
X232503000Y-48240438D02*
X232538714Y-48276152D01*
X232538714Y-48276152D02*
X232574428Y-48347581D01*
X232574428Y-48347581D02*
X232574428Y-48419010D01*
X232574428Y-48419010D02*
X232538714Y-48490438D01*
X232538714Y-48490438D02*
X232503000Y-48526152D01*
X232503000Y-48526152D02*
X232431571Y-48561867D01*
X232431571Y-48561867D02*
X232181571Y-48561867D01*
D13*
X235677047Y-57810178D02*
X235629428Y-57774464D01*
X235629428Y-57774464D02*
X235557999Y-57774464D01*
X235557999Y-57774464D02*
X235486571Y-57810178D01*
X235486571Y-57810178D02*
X235438952Y-57881607D01*
X235438952Y-57881607D02*
X235415142Y-57953035D01*
X235415142Y-57953035D02*
X235391333Y-58095892D01*
X235391333Y-58095892D02*
X235391333Y-58203035D01*
X235391333Y-58203035D02*
X235415142Y-58345892D01*
X235415142Y-58345892D02*
X235438952Y-58417321D01*
X235438952Y-58417321D02*
X235486571Y-58488750D01*
X235486571Y-58488750D02*
X235557999Y-58524464D01*
X235557999Y-58524464D02*
X235605618Y-58524464D01*
X235605618Y-58524464D02*
X235677047Y-58488750D01*
X235677047Y-58488750D02*
X235700856Y-58453035D01*
X235700856Y-58453035D02*
X235700856Y-58203035D01*
X235700856Y-58203035D02*
X235605618Y-58203035D01*
X235915142Y-58524464D02*
X235915142Y-57774464D01*
X235915142Y-57774464D02*
X236200856Y-58524464D01*
X236200856Y-58524464D02*
X236200856Y-57774464D01*
X236438952Y-58524464D02*
X236438952Y-57774464D01*
X236438952Y-57774464D02*
X236558000Y-57774464D01*
X236558000Y-57774464D02*
X236629428Y-57810178D01*
X236629428Y-57810178D02*
X236677047Y-57881607D01*
X236677047Y-57881607D02*
X236700857Y-57953035D01*
X236700857Y-57953035D02*
X236724666Y-58095892D01*
X236724666Y-58095892D02*
X236724666Y-58203035D01*
X236724666Y-58203035D02*
X236700857Y-58345892D01*
X236700857Y-58345892D02*
X236677047Y-58417321D01*
X236677047Y-58417321D02*
X236629428Y-58488750D01*
X236629428Y-58488750D02*
X236558000Y-58524464D01*
X236558000Y-58524464D02*
X236438952Y-58524464D01*
X224027047Y-55280178D02*
X223979428Y-55244464D01*
X223979428Y-55244464D02*
X223907999Y-55244464D01*
X223907999Y-55244464D02*
X223836571Y-55280178D01*
X223836571Y-55280178D02*
X223788952Y-55351607D01*
X223788952Y-55351607D02*
X223765142Y-55423035D01*
X223765142Y-55423035D02*
X223741333Y-55565892D01*
X223741333Y-55565892D02*
X223741333Y-55673035D01*
X223741333Y-55673035D02*
X223765142Y-55815892D01*
X223765142Y-55815892D02*
X223788952Y-55887321D01*
X223788952Y-55887321D02*
X223836571Y-55958750D01*
X223836571Y-55958750D02*
X223907999Y-55994464D01*
X223907999Y-55994464D02*
X223955618Y-55994464D01*
X223955618Y-55994464D02*
X224027047Y-55958750D01*
X224027047Y-55958750D02*
X224050856Y-55923035D01*
X224050856Y-55923035D02*
X224050856Y-55673035D01*
X224050856Y-55673035D02*
X223955618Y-55673035D01*
X224265142Y-55994464D02*
X224265142Y-55244464D01*
X224265142Y-55244464D02*
X224550856Y-55994464D01*
X224550856Y-55994464D02*
X224550856Y-55244464D01*
X224788952Y-55994464D02*
X224788952Y-55244464D01*
X224788952Y-55244464D02*
X224908000Y-55244464D01*
X224908000Y-55244464D02*
X224979428Y-55280178D01*
X224979428Y-55280178D02*
X225027047Y-55351607D01*
X225027047Y-55351607D02*
X225050857Y-55423035D01*
X225050857Y-55423035D02*
X225074666Y-55565892D01*
X225074666Y-55565892D02*
X225074666Y-55673035D01*
X225074666Y-55673035D02*
X225050857Y-55815892D01*
X225050857Y-55815892D02*
X225027047Y-55887321D01*
X225027047Y-55887321D02*
X224979428Y-55958750D01*
X224979428Y-55958750D02*
X224908000Y-55994464D01*
X224908000Y-55994464D02*
X224788952Y-55994464D01*
X235657047Y-60390178D02*
X235609428Y-60354464D01*
X235609428Y-60354464D02*
X235537999Y-60354464D01*
X235537999Y-60354464D02*
X235466571Y-60390178D01*
X235466571Y-60390178D02*
X235418952Y-60461607D01*
X235418952Y-60461607D02*
X235395142Y-60533035D01*
X235395142Y-60533035D02*
X235371333Y-60675892D01*
X235371333Y-60675892D02*
X235371333Y-60783035D01*
X235371333Y-60783035D02*
X235395142Y-60925892D01*
X235395142Y-60925892D02*
X235418952Y-60997321D01*
X235418952Y-60997321D02*
X235466571Y-61068750D01*
X235466571Y-61068750D02*
X235537999Y-61104464D01*
X235537999Y-61104464D02*
X235585618Y-61104464D01*
X235585618Y-61104464D02*
X235657047Y-61068750D01*
X235657047Y-61068750D02*
X235680856Y-61033035D01*
X235680856Y-61033035D02*
X235680856Y-60783035D01*
X235680856Y-60783035D02*
X235585618Y-60783035D01*
X235895142Y-61104464D02*
X235895142Y-60354464D01*
X235895142Y-60354464D02*
X236180856Y-61104464D01*
X236180856Y-61104464D02*
X236180856Y-60354464D01*
X236418952Y-61104464D02*
X236418952Y-60354464D01*
X236418952Y-60354464D02*
X236538000Y-60354464D01*
X236538000Y-60354464D02*
X236609428Y-60390178D01*
X236609428Y-60390178D02*
X236657047Y-60461607D01*
X236657047Y-60461607D02*
X236680857Y-60533035D01*
X236680857Y-60533035D02*
X236704666Y-60675892D01*
X236704666Y-60675892D02*
X236704666Y-60783035D01*
X236704666Y-60783035D02*
X236680857Y-60925892D01*
X236680857Y-60925892D02*
X236657047Y-60997321D01*
X236657047Y-60997321D02*
X236609428Y-61068750D01*
X236609428Y-61068750D02*
X236538000Y-61104464D01*
X236538000Y-61104464D02*
X236418952Y-61104464D01*
X224162761Y-53384464D02*
X223996095Y-53027321D01*
X223877047Y-53384464D02*
X223877047Y-52634464D01*
X223877047Y-52634464D02*
X224067523Y-52634464D01*
X224067523Y-52634464D02*
X224115142Y-52670178D01*
X224115142Y-52670178D02*
X224138952Y-52705892D01*
X224138952Y-52705892D02*
X224162761Y-52777321D01*
X224162761Y-52777321D02*
X224162761Y-52884464D01*
X224162761Y-52884464D02*
X224138952Y-52955892D01*
X224138952Y-52955892D02*
X224115142Y-52991607D01*
X224115142Y-52991607D02*
X224067523Y-53027321D01*
X224067523Y-53027321D02*
X223877047Y-53027321D01*
X224353238Y-53170178D02*
X224591333Y-53170178D01*
X224305619Y-53384464D02*
X224472285Y-52634464D01*
X224472285Y-52634464D02*
X224638952Y-53384464D01*
X224757999Y-52634464D02*
X224877047Y-53384464D01*
X224877047Y-53384464D02*
X224972285Y-52848750D01*
X224972285Y-52848750D02*
X225067523Y-53384464D01*
X225067523Y-53384464D02*
X225186571Y-52634464D01*
D11*
X228362095Y-85560819D02*
X228933523Y-85560819D01*
X228647809Y-86560819D02*
X228647809Y-85560819D01*
X229838285Y-86560819D02*
X229504952Y-86084628D01*
X229266857Y-86560819D02*
X229266857Y-85560819D01*
X229266857Y-85560819D02*
X229647809Y-85560819D01*
X229647809Y-85560819D02*
X229743047Y-85608438D01*
X229743047Y-85608438D02*
X229790666Y-85656057D01*
X229790666Y-85656057D02*
X229838285Y-85751295D01*
X229838285Y-85751295D02*
X229838285Y-85894152D01*
X229838285Y-85894152D02*
X229790666Y-85989390D01*
X229790666Y-85989390D02*
X229743047Y-86037009D01*
X229743047Y-86037009D02*
X229647809Y-86084628D01*
X229647809Y-86084628D02*
X229266857Y-86084628D01*
X230838285Y-86560819D02*
X230504952Y-86084628D01*
X230266857Y-86560819D02*
X230266857Y-85560819D01*
X230266857Y-85560819D02*
X230647809Y-85560819D01*
X230647809Y-85560819D02*
X230743047Y-85608438D01*
X230743047Y-85608438D02*
X230790666Y-85656057D01*
X230790666Y-85656057D02*
X230838285Y-85751295D01*
X230838285Y-85751295D02*
X230838285Y-85894152D01*
X230838285Y-85894152D02*
X230790666Y-85989390D01*
X230790666Y-85989390D02*
X230743047Y-86037009D01*
X230743047Y-86037009D02*
X230647809Y-86084628D01*
X230647809Y-86084628D02*
X230266857Y-86084628D01*
X231219238Y-86513200D02*
X231362095Y-86560819D01*
X231362095Y-86560819D02*
X231600190Y-86560819D01*
X231600190Y-86560819D02*
X231695428Y-86513200D01*
X231695428Y-86513200D02*
X231743047Y-86465580D01*
X231743047Y-86465580D02*
X231790666Y-86370342D01*
X231790666Y-86370342D02*
X231790666Y-86275104D01*
X231790666Y-86275104D02*
X231743047Y-86179866D01*
X231743047Y-86179866D02*
X231695428Y-86132247D01*
X231695428Y-86132247D02*
X231600190Y-86084628D01*
X231600190Y-86084628D02*
X231409714Y-86037009D01*
X231409714Y-86037009D02*
X231314476Y-85989390D01*
X231314476Y-85989390D02*
X231266857Y-85941771D01*
X231266857Y-85941771D02*
X231219238Y-85846533D01*
X231219238Y-85846533D02*
X231219238Y-85751295D01*
X231219238Y-85751295D02*
X231266857Y-85656057D01*
X231266857Y-85656057D02*
X231314476Y-85608438D01*
X231314476Y-85608438D02*
X231409714Y-85560819D01*
X231409714Y-85560819D02*
X231647809Y-85560819D01*
X231647809Y-85560819D02*
X231790666Y-85608438D01*
X220291315Y-87050381D02*
X219815124Y-87383714D01*
X220291315Y-87621809D02*
X219291315Y-87621809D01*
X219291315Y-87621809D02*
X219291315Y-87240857D01*
X219291315Y-87240857D02*
X219338934Y-87145619D01*
X219338934Y-87145619D02*
X219386553Y-87098000D01*
X219386553Y-87098000D02*
X219481791Y-87050381D01*
X219481791Y-87050381D02*
X219624648Y-87050381D01*
X219624648Y-87050381D02*
X219719886Y-87098000D01*
X219719886Y-87098000D02*
X219767505Y-87145619D01*
X219767505Y-87145619D02*
X219815124Y-87240857D01*
X219815124Y-87240857D02*
X219815124Y-87621809D01*
X219767505Y-86621809D02*
X219767505Y-86288476D01*
X220291315Y-86145619D02*
X220291315Y-86621809D01*
X220291315Y-86621809D02*
X219291315Y-86621809D01*
X219291315Y-86621809D02*
X219291315Y-86145619D01*
X220243696Y-85764666D02*
X220291315Y-85621809D01*
X220291315Y-85621809D02*
X220291315Y-85383714D01*
X220291315Y-85383714D02*
X220243696Y-85288476D01*
X220243696Y-85288476D02*
X220196076Y-85240857D01*
X220196076Y-85240857D02*
X220100838Y-85193238D01*
X220100838Y-85193238D02*
X220005600Y-85193238D01*
X220005600Y-85193238D02*
X219910362Y-85240857D01*
X219910362Y-85240857D02*
X219862743Y-85288476D01*
X219862743Y-85288476D02*
X219815124Y-85383714D01*
X219815124Y-85383714D02*
X219767505Y-85574190D01*
X219767505Y-85574190D02*
X219719886Y-85669428D01*
X219719886Y-85669428D02*
X219672267Y-85717047D01*
X219672267Y-85717047D02*
X219577029Y-85764666D01*
X219577029Y-85764666D02*
X219481791Y-85764666D01*
X219481791Y-85764666D02*
X219386553Y-85717047D01*
X219386553Y-85717047D02*
X219338934Y-85669428D01*
X219338934Y-85669428D02*
X219291315Y-85574190D01*
X219291315Y-85574190D02*
X219291315Y-85336095D01*
X219291315Y-85336095D02*
X219338934Y-85193238D01*
X219767505Y-84764666D02*
X219767505Y-84431333D01*
X220291315Y-84288476D02*
X220291315Y-84764666D01*
X220291315Y-84764666D02*
X219291315Y-84764666D01*
X219291315Y-84764666D02*
X219291315Y-84288476D01*
X219291315Y-84002761D02*
X219291315Y-83431333D01*
X220291315Y-83717047D02*
X219291315Y-83717047D01*
D14*
X184892752Y-41749499D02*
X185892752Y-41749499D01*
X184940371Y-41749499D02*
X184892752Y-41654261D01*
X184892752Y-41654261D02*
X184892752Y-41463785D01*
X184892752Y-41463785D02*
X184940371Y-41368547D01*
X184940371Y-41368547D02*
X184987990Y-41320928D01*
X184987990Y-41320928D02*
X185083228Y-41273309D01*
X185083228Y-41273309D02*
X185368942Y-41273309D01*
X185368942Y-41273309D02*
X185464180Y-41320928D01*
X185464180Y-41320928D02*
X185511800Y-41368547D01*
X185511800Y-41368547D02*
X185559419Y-41463785D01*
X185559419Y-41463785D02*
X185559419Y-41654261D01*
X185559419Y-41654261D02*
X185511800Y-41749499D01*
X184892752Y-40416166D02*
X185559419Y-40416166D01*
X184892752Y-40844737D02*
X185416561Y-40844737D01*
X185416561Y-40844737D02*
X185511800Y-40797118D01*
X185511800Y-40797118D02*
X185559419Y-40701880D01*
X185559419Y-40701880D02*
X185559419Y-40559023D01*
X185559419Y-40559023D02*
X185511800Y-40463785D01*
X185511800Y-40463785D02*
X185464180Y-40416166D01*
X185511800Y-39511404D02*
X185559419Y-39606642D01*
X185559419Y-39606642D02*
X185559419Y-39797118D01*
X185559419Y-39797118D02*
X185511800Y-39892356D01*
X185511800Y-39892356D02*
X185464180Y-39939975D01*
X185464180Y-39939975D02*
X185368942Y-39987594D01*
X185368942Y-39987594D02*
X185083228Y-39987594D01*
X185083228Y-39987594D02*
X184987990Y-39939975D01*
X184987990Y-39939975D02*
X184940371Y-39892356D01*
X184940371Y-39892356D02*
X184892752Y-39797118D01*
X184892752Y-39797118D02*
X184892752Y-39606642D01*
X184892752Y-39606642D02*
X184940371Y-39511404D01*
X185559419Y-39082832D02*
X184559419Y-39082832D01*
X185178466Y-38987594D02*
X185559419Y-38701880D01*
X184892752Y-38701880D02*
X185273704Y-39082832D01*
X184956252Y-55639999D02*
X184956252Y-55259047D01*
X184622919Y-55497142D02*
X185480061Y-55497142D01*
X185480061Y-55497142D02*
X185575300Y-55449523D01*
X185575300Y-55449523D02*
X185622919Y-55354285D01*
X185622919Y-55354285D02*
X185622919Y-55259047D01*
X185575300Y-54544761D02*
X185622919Y-54639999D01*
X185622919Y-54639999D02*
X185622919Y-54830475D01*
X185622919Y-54830475D02*
X185575300Y-54925713D01*
X185575300Y-54925713D02*
X185480061Y-54973332D01*
X185480061Y-54973332D02*
X185099109Y-54973332D01*
X185099109Y-54973332D02*
X185003871Y-54925713D01*
X185003871Y-54925713D02*
X184956252Y-54830475D01*
X184956252Y-54830475D02*
X184956252Y-54639999D01*
X184956252Y-54639999D02*
X185003871Y-54544761D01*
X185003871Y-54544761D02*
X185099109Y-54497142D01*
X185099109Y-54497142D02*
X185194347Y-54497142D01*
X185194347Y-54497142D02*
X185289585Y-54973332D01*
X184956252Y-54068570D02*
X185622919Y-54068570D01*
X185051490Y-54068570D02*
X185003871Y-54020951D01*
X185003871Y-54020951D02*
X184956252Y-53925713D01*
X184956252Y-53925713D02*
X184956252Y-53782856D01*
X184956252Y-53782856D02*
X185003871Y-53687618D01*
X185003871Y-53687618D02*
X185099109Y-53639999D01*
X185099109Y-53639999D02*
X185622919Y-53639999D01*
X184956252Y-53306665D02*
X184956252Y-52925713D01*
X184622919Y-53163808D02*
X185480061Y-53163808D01*
X185480061Y-53163808D02*
X185575300Y-53116189D01*
X185575300Y-53116189D02*
X185622919Y-53020951D01*
X185622919Y-53020951D02*
X185622919Y-52925713D01*
X185622919Y-52592379D02*
X184956252Y-52592379D01*
X184622919Y-52592379D02*
X184670538Y-52639998D01*
X184670538Y-52639998D02*
X184718157Y-52592379D01*
X184718157Y-52592379D02*
X184670538Y-52544760D01*
X184670538Y-52544760D02*
X184622919Y-52592379D01*
X184622919Y-52592379D02*
X184718157Y-52592379D01*
X184956252Y-52116189D02*
X185622919Y-52116189D01*
X185051490Y-52116189D02*
X185003871Y-52068570D01*
X185003871Y-52068570D02*
X184956252Y-51973332D01*
X184956252Y-51973332D02*
X184956252Y-51830475D01*
X184956252Y-51830475D02*
X185003871Y-51735237D01*
X185003871Y-51735237D02*
X185099109Y-51687618D01*
X185099109Y-51687618D02*
X185622919Y-51687618D01*
X184956252Y-50782856D02*
X185765776Y-50782856D01*
X185765776Y-50782856D02*
X185861014Y-50830475D01*
X185861014Y-50830475D02*
X185908633Y-50878094D01*
X185908633Y-50878094D02*
X185956252Y-50973332D01*
X185956252Y-50973332D02*
X185956252Y-51116189D01*
X185956252Y-51116189D02*
X185908633Y-51211427D01*
X185575300Y-50782856D02*
X185622919Y-50878094D01*
X185622919Y-50878094D02*
X185622919Y-51068570D01*
X185622919Y-51068570D02*
X185575300Y-51163808D01*
X185575300Y-51163808D02*
X185527680Y-51211427D01*
X185527680Y-51211427D02*
X185432442Y-51259046D01*
X185432442Y-51259046D02*
X185146728Y-51259046D01*
X185146728Y-51259046D02*
X185051490Y-51211427D01*
X185051490Y-51211427D02*
X185003871Y-51163808D01*
X185003871Y-51163808D02*
X184956252Y-51068570D01*
X184956252Y-51068570D02*
X184956252Y-50878094D01*
X184956252Y-50878094D02*
X185003871Y-50782856D01*
D13*
X24175047Y-55280178D02*
X24127428Y-55244464D01*
X24127428Y-55244464D02*
X24055999Y-55244464D01*
X24055999Y-55244464D02*
X23984571Y-55280178D01*
X23984571Y-55280178D02*
X23936952Y-55351607D01*
X23936952Y-55351607D02*
X23913142Y-55423035D01*
X23913142Y-55423035D02*
X23889333Y-55565892D01*
X23889333Y-55565892D02*
X23889333Y-55673035D01*
X23889333Y-55673035D02*
X23913142Y-55815892D01*
X23913142Y-55815892D02*
X23936952Y-55887321D01*
X23936952Y-55887321D02*
X23984571Y-55958750D01*
X23984571Y-55958750D02*
X24055999Y-55994464D01*
X24055999Y-55994464D02*
X24103618Y-55994464D01*
X24103618Y-55994464D02*
X24175047Y-55958750D01*
X24175047Y-55958750D02*
X24198856Y-55923035D01*
X24198856Y-55923035D02*
X24198856Y-55673035D01*
X24198856Y-55673035D02*
X24103618Y-55673035D01*
X24413142Y-55994464D02*
X24413142Y-55244464D01*
X24413142Y-55244464D02*
X24698856Y-55994464D01*
X24698856Y-55994464D02*
X24698856Y-55244464D01*
X24936952Y-55994464D02*
X24936952Y-55244464D01*
X24936952Y-55244464D02*
X25056000Y-55244464D01*
X25056000Y-55244464D02*
X25127428Y-55280178D01*
X25127428Y-55280178D02*
X25175047Y-55351607D01*
X25175047Y-55351607D02*
X25198857Y-55423035D01*
X25198857Y-55423035D02*
X25222666Y-55565892D01*
X25222666Y-55565892D02*
X25222666Y-55673035D01*
X25222666Y-55673035D02*
X25198857Y-55815892D01*
X25198857Y-55815892D02*
X25175047Y-55887321D01*
X25175047Y-55887321D02*
X25127428Y-55958750D01*
X25127428Y-55958750D02*
X25056000Y-55994464D01*
X25056000Y-55994464D02*
X24936952Y-55994464D01*
D12*
X27829571Y-48954724D02*
X27829571Y-48204724D01*
X27829571Y-48204724D02*
X28079571Y-48740438D01*
X28079571Y-48740438D02*
X28329571Y-48204724D01*
X28329571Y-48204724D02*
X28329571Y-48954724D01*
X28686714Y-48954724D02*
X28686714Y-48454724D01*
X28686714Y-48204724D02*
X28651000Y-48240438D01*
X28651000Y-48240438D02*
X28686714Y-48276152D01*
X28686714Y-48276152D02*
X28722428Y-48240438D01*
X28722428Y-48240438D02*
X28686714Y-48204724D01*
X28686714Y-48204724D02*
X28686714Y-48276152D01*
X29365286Y-48919010D02*
X29293857Y-48954724D01*
X29293857Y-48954724D02*
X29151000Y-48954724D01*
X29151000Y-48954724D02*
X29079571Y-48919010D01*
X29079571Y-48919010D02*
X29043857Y-48883295D01*
X29043857Y-48883295D02*
X29008143Y-48811867D01*
X29008143Y-48811867D02*
X29008143Y-48597581D01*
X29008143Y-48597581D02*
X29043857Y-48526152D01*
X29043857Y-48526152D02*
X29079571Y-48490438D01*
X29079571Y-48490438D02*
X29151000Y-48454724D01*
X29151000Y-48454724D02*
X29293857Y-48454724D01*
X29293857Y-48454724D02*
X29365286Y-48490438D01*
X29686714Y-48954724D02*
X29686714Y-48454724D01*
X29686714Y-48597581D02*
X29722428Y-48526152D01*
X29722428Y-48526152D02*
X29758143Y-48490438D01*
X29758143Y-48490438D02*
X29829571Y-48454724D01*
X29829571Y-48454724D02*
X29901000Y-48454724D01*
X30258143Y-48954724D02*
X30186714Y-48919010D01*
X30186714Y-48919010D02*
X30151000Y-48883295D01*
X30151000Y-48883295D02*
X30115286Y-48811867D01*
X30115286Y-48811867D02*
X30115286Y-48597581D01*
X30115286Y-48597581D02*
X30151000Y-48526152D01*
X30151000Y-48526152D02*
X30186714Y-48490438D01*
X30186714Y-48490438D02*
X30258143Y-48454724D01*
X30258143Y-48454724D02*
X30365286Y-48454724D01*
X30365286Y-48454724D02*
X30436714Y-48490438D01*
X30436714Y-48490438D02*
X30472429Y-48526152D01*
X30472429Y-48526152D02*
X30508143Y-48597581D01*
X30508143Y-48597581D02*
X30508143Y-48811867D01*
X30508143Y-48811867D02*
X30472429Y-48883295D01*
X30472429Y-48883295D02*
X30436714Y-48919010D01*
X30436714Y-48919010D02*
X30365286Y-48954724D01*
X30365286Y-48954724D02*
X30258143Y-48954724D01*
X30829571Y-48204724D02*
X30829571Y-48811867D01*
X30829571Y-48811867D02*
X30865285Y-48883295D01*
X30865285Y-48883295D02*
X30901000Y-48919010D01*
X30901000Y-48919010D02*
X30972428Y-48954724D01*
X30972428Y-48954724D02*
X31115285Y-48954724D01*
X31115285Y-48954724D02*
X31186714Y-48919010D01*
X31186714Y-48919010D02*
X31222428Y-48883295D01*
X31222428Y-48883295D02*
X31258142Y-48811867D01*
X31258142Y-48811867D02*
X31258142Y-48204724D01*
X31579571Y-48919010D02*
X31686714Y-48954724D01*
X31686714Y-48954724D02*
X31865285Y-48954724D01*
X31865285Y-48954724D02*
X31936714Y-48919010D01*
X31936714Y-48919010D02*
X31972428Y-48883295D01*
X31972428Y-48883295D02*
X32008142Y-48811867D01*
X32008142Y-48811867D02*
X32008142Y-48740438D01*
X32008142Y-48740438D02*
X31972428Y-48669010D01*
X31972428Y-48669010D02*
X31936714Y-48633295D01*
X31936714Y-48633295D02*
X31865285Y-48597581D01*
X31865285Y-48597581D02*
X31722428Y-48561867D01*
X31722428Y-48561867D02*
X31650999Y-48526152D01*
X31650999Y-48526152D02*
X31615285Y-48490438D01*
X31615285Y-48490438D02*
X31579571Y-48419010D01*
X31579571Y-48419010D02*
X31579571Y-48347581D01*
X31579571Y-48347581D02*
X31615285Y-48276152D01*
X31615285Y-48276152D02*
X31650999Y-48240438D01*
X31650999Y-48240438D02*
X31722428Y-48204724D01*
X31722428Y-48204724D02*
X31900999Y-48204724D01*
X31900999Y-48204724D02*
X32008142Y-48240438D01*
X32579571Y-48561867D02*
X32686714Y-48597581D01*
X32686714Y-48597581D02*
X32722428Y-48633295D01*
X32722428Y-48633295D02*
X32758142Y-48704724D01*
X32758142Y-48704724D02*
X32758142Y-48811867D01*
X32758142Y-48811867D02*
X32722428Y-48883295D01*
X32722428Y-48883295D02*
X32686714Y-48919010D01*
X32686714Y-48919010D02*
X32615285Y-48954724D01*
X32615285Y-48954724D02*
X32329571Y-48954724D01*
X32329571Y-48954724D02*
X32329571Y-48204724D01*
X32329571Y-48204724D02*
X32579571Y-48204724D01*
X32579571Y-48204724D02*
X32651000Y-48240438D01*
X32651000Y-48240438D02*
X32686714Y-48276152D01*
X32686714Y-48276152D02*
X32722428Y-48347581D01*
X32722428Y-48347581D02*
X32722428Y-48419010D01*
X32722428Y-48419010D02*
X32686714Y-48490438D01*
X32686714Y-48490438D02*
X32651000Y-48526152D01*
X32651000Y-48526152D02*
X32579571Y-48561867D01*
X32579571Y-48561867D02*
X32329571Y-48561867D01*
D13*
X35707047Y-57810178D02*
X35659428Y-57774464D01*
X35659428Y-57774464D02*
X35587999Y-57774464D01*
X35587999Y-57774464D02*
X35516571Y-57810178D01*
X35516571Y-57810178D02*
X35468952Y-57881607D01*
X35468952Y-57881607D02*
X35445142Y-57953035D01*
X35445142Y-57953035D02*
X35421333Y-58095892D01*
X35421333Y-58095892D02*
X35421333Y-58203035D01*
X35421333Y-58203035D02*
X35445142Y-58345892D01*
X35445142Y-58345892D02*
X35468952Y-58417321D01*
X35468952Y-58417321D02*
X35516571Y-58488750D01*
X35516571Y-58488750D02*
X35587999Y-58524464D01*
X35587999Y-58524464D02*
X35635618Y-58524464D01*
X35635618Y-58524464D02*
X35707047Y-58488750D01*
X35707047Y-58488750D02*
X35730856Y-58453035D01*
X35730856Y-58453035D02*
X35730856Y-58203035D01*
X35730856Y-58203035D02*
X35635618Y-58203035D01*
X35945142Y-58524464D02*
X35945142Y-57774464D01*
X35945142Y-57774464D02*
X36230856Y-58524464D01*
X36230856Y-58524464D02*
X36230856Y-57774464D01*
X36468952Y-58524464D02*
X36468952Y-57774464D01*
X36468952Y-57774464D02*
X36588000Y-57774464D01*
X36588000Y-57774464D02*
X36659428Y-57810178D01*
X36659428Y-57810178D02*
X36707047Y-57881607D01*
X36707047Y-57881607D02*
X36730857Y-57953035D01*
X36730857Y-57953035D02*
X36754666Y-58095892D01*
X36754666Y-58095892D02*
X36754666Y-58203035D01*
X36754666Y-58203035D02*
X36730857Y-58345892D01*
X36730857Y-58345892D02*
X36707047Y-58417321D01*
X36707047Y-58417321D02*
X36659428Y-58488750D01*
X36659428Y-58488750D02*
X36588000Y-58524464D01*
X36588000Y-58524464D02*
X36468952Y-58524464D01*
X24310761Y-53384464D02*
X24144095Y-53027321D01*
X24025047Y-53384464D02*
X24025047Y-52634464D01*
X24025047Y-52634464D02*
X24215523Y-52634464D01*
X24215523Y-52634464D02*
X24263142Y-52670178D01*
X24263142Y-52670178D02*
X24286952Y-52705892D01*
X24286952Y-52705892D02*
X24310761Y-52777321D01*
X24310761Y-52777321D02*
X24310761Y-52884464D01*
X24310761Y-52884464D02*
X24286952Y-52955892D01*
X24286952Y-52955892D02*
X24263142Y-52991607D01*
X24263142Y-52991607D02*
X24215523Y-53027321D01*
X24215523Y-53027321D02*
X24025047Y-53027321D01*
X24501238Y-53170178D02*
X24739333Y-53170178D01*
X24453619Y-53384464D02*
X24620285Y-52634464D01*
X24620285Y-52634464D02*
X24786952Y-53384464D01*
X24905999Y-52634464D02*
X25025047Y-53384464D01*
X25025047Y-53384464D02*
X25120285Y-52848750D01*
X25120285Y-52848750D02*
X25215523Y-53384464D01*
X25215523Y-53384464D02*
X25334571Y-52634464D01*
X35687047Y-60390178D02*
X35639428Y-60354464D01*
X35639428Y-60354464D02*
X35567999Y-60354464D01*
X35567999Y-60354464D02*
X35496571Y-60390178D01*
X35496571Y-60390178D02*
X35448952Y-60461607D01*
X35448952Y-60461607D02*
X35425142Y-60533035D01*
X35425142Y-60533035D02*
X35401333Y-60675892D01*
X35401333Y-60675892D02*
X35401333Y-60783035D01*
X35401333Y-60783035D02*
X35425142Y-60925892D01*
X35425142Y-60925892D02*
X35448952Y-60997321D01*
X35448952Y-60997321D02*
X35496571Y-61068750D01*
X35496571Y-61068750D02*
X35567999Y-61104464D01*
X35567999Y-61104464D02*
X35615618Y-61104464D01*
X35615618Y-61104464D02*
X35687047Y-61068750D01*
X35687047Y-61068750D02*
X35710856Y-61033035D01*
X35710856Y-61033035D02*
X35710856Y-60783035D01*
X35710856Y-60783035D02*
X35615618Y-60783035D01*
X35925142Y-61104464D02*
X35925142Y-60354464D01*
X35925142Y-60354464D02*
X36210856Y-61104464D01*
X36210856Y-61104464D02*
X36210856Y-60354464D01*
X36448952Y-61104464D02*
X36448952Y-60354464D01*
X36448952Y-60354464D02*
X36568000Y-60354464D01*
X36568000Y-60354464D02*
X36639428Y-60390178D01*
X36639428Y-60390178D02*
X36687047Y-60461607D01*
X36687047Y-60461607D02*
X36710857Y-60533035D01*
X36710857Y-60533035D02*
X36734666Y-60675892D01*
X36734666Y-60675892D02*
X36734666Y-60783035D01*
X36734666Y-60783035D02*
X36710857Y-60925892D01*
X36710857Y-60925892D02*
X36687047Y-60997321D01*
X36687047Y-60997321D02*
X36639428Y-61068750D01*
X36639428Y-61068750D02*
X36568000Y-61104464D01*
X36568000Y-61104464D02*
X36448952Y-61104464D01*
D11*
X28464095Y-85452819D02*
X29035523Y-85452819D01*
X28749809Y-86452819D02*
X28749809Y-85452819D01*
X29940285Y-86452819D02*
X29606952Y-85976628D01*
X29368857Y-86452819D02*
X29368857Y-85452819D01*
X29368857Y-85452819D02*
X29749809Y-85452819D01*
X29749809Y-85452819D02*
X29845047Y-85500438D01*
X29845047Y-85500438D02*
X29892666Y-85548057D01*
X29892666Y-85548057D02*
X29940285Y-85643295D01*
X29940285Y-85643295D02*
X29940285Y-85786152D01*
X29940285Y-85786152D02*
X29892666Y-85881390D01*
X29892666Y-85881390D02*
X29845047Y-85929009D01*
X29845047Y-85929009D02*
X29749809Y-85976628D01*
X29749809Y-85976628D02*
X29368857Y-85976628D01*
X30940285Y-86452819D02*
X30606952Y-85976628D01*
X30368857Y-86452819D02*
X30368857Y-85452819D01*
X30368857Y-85452819D02*
X30749809Y-85452819D01*
X30749809Y-85452819D02*
X30845047Y-85500438D01*
X30845047Y-85500438D02*
X30892666Y-85548057D01*
X30892666Y-85548057D02*
X30940285Y-85643295D01*
X30940285Y-85643295D02*
X30940285Y-85786152D01*
X30940285Y-85786152D02*
X30892666Y-85881390D01*
X30892666Y-85881390D02*
X30845047Y-85929009D01*
X30845047Y-85929009D02*
X30749809Y-85976628D01*
X30749809Y-85976628D02*
X30368857Y-85976628D01*
X31321238Y-86405200D02*
X31464095Y-86452819D01*
X31464095Y-86452819D02*
X31702190Y-86452819D01*
X31702190Y-86452819D02*
X31797428Y-86405200D01*
X31797428Y-86405200D02*
X31845047Y-86357580D01*
X31845047Y-86357580D02*
X31892666Y-86262342D01*
X31892666Y-86262342D02*
X31892666Y-86167104D01*
X31892666Y-86167104D02*
X31845047Y-86071866D01*
X31845047Y-86071866D02*
X31797428Y-86024247D01*
X31797428Y-86024247D02*
X31702190Y-85976628D01*
X31702190Y-85976628D02*
X31511714Y-85929009D01*
X31511714Y-85929009D02*
X31416476Y-85881390D01*
X31416476Y-85881390D02*
X31368857Y-85833771D01*
X31368857Y-85833771D02*
X31321238Y-85738533D01*
X31321238Y-85738533D02*
X31321238Y-85643295D01*
X31321238Y-85643295D02*
X31368857Y-85548057D01*
X31368857Y-85548057D02*
X31416476Y-85500438D01*
X31416476Y-85500438D02*
X31511714Y-85452819D01*
X31511714Y-85452819D02*
X31749809Y-85452819D01*
X31749809Y-85452819D02*
X31892666Y-85500438D01*
D14*
X75292252Y-55639999D02*
X75292252Y-55259047D01*
X74958919Y-55497142D02*
X75816061Y-55497142D01*
X75816061Y-55497142D02*
X75911300Y-55449523D01*
X75911300Y-55449523D02*
X75958919Y-55354285D01*
X75958919Y-55354285D02*
X75958919Y-55259047D01*
X75911300Y-54544761D02*
X75958919Y-54639999D01*
X75958919Y-54639999D02*
X75958919Y-54830475D01*
X75958919Y-54830475D02*
X75911300Y-54925713D01*
X75911300Y-54925713D02*
X75816061Y-54973332D01*
X75816061Y-54973332D02*
X75435109Y-54973332D01*
X75435109Y-54973332D02*
X75339871Y-54925713D01*
X75339871Y-54925713D02*
X75292252Y-54830475D01*
X75292252Y-54830475D02*
X75292252Y-54639999D01*
X75292252Y-54639999D02*
X75339871Y-54544761D01*
X75339871Y-54544761D02*
X75435109Y-54497142D01*
X75435109Y-54497142D02*
X75530347Y-54497142D01*
X75530347Y-54497142D02*
X75625585Y-54973332D01*
X75292252Y-54068570D02*
X75958919Y-54068570D01*
X75387490Y-54068570D02*
X75339871Y-54020951D01*
X75339871Y-54020951D02*
X75292252Y-53925713D01*
X75292252Y-53925713D02*
X75292252Y-53782856D01*
X75292252Y-53782856D02*
X75339871Y-53687618D01*
X75339871Y-53687618D02*
X75435109Y-53639999D01*
X75435109Y-53639999D02*
X75958919Y-53639999D01*
X75292252Y-53306665D02*
X75292252Y-52925713D01*
X74958919Y-53163808D02*
X75816061Y-53163808D01*
X75816061Y-53163808D02*
X75911300Y-53116189D01*
X75911300Y-53116189D02*
X75958919Y-53020951D01*
X75958919Y-53020951D02*
X75958919Y-52925713D01*
X75958919Y-52592379D02*
X75292252Y-52592379D01*
X74958919Y-52592379D02*
X75006538Y-52639998D01*
X75006538Y-52639998D02*
X75054157Y-52592379D01*
X75054157Y-52592379D02*
X75006538Y-52544760D01*
X75006538Y-52544760D02*
X74958919Y-52592379D01*
X74958919Y-52592379D02*
X75054157Y-52592379D01*
X75292252Y-52116189D02*
X75958919Y-52116189D01*
X75387490Y-52116189D02*
X75339871Y-52068570D01*
X75339871Y-52068570D02*
X75292252Y-51973332D01*
X75292252Y-51973332D02*
X75292252Y-51830475D01*
X75292252Y-51830475D02*
X75339871Y-51735237D01*
X75339871Y-51735237D02*
X75435109Y-51687618D01*
X75435109Y-51687618D02*
X75958919Y-51687618D01*
X75292252Y-50782856D02*
X76101776Y-50782856D01*
X76101776Y-50782856D02*
X76197014Y-50830475D01*
X76197014Y-50830475D02*
X76244633Y-50878094D01*
X76244633Y-50878094D02*
X76292252Y-50973332D01*
X76292252Y-50973332D02*
X76292252Y-51116189D01*
X76292252Y-51116189D02*
X76244633Y-51211427D01*
X75911300Y-50782856D02*
X75958919Y-50878094D01*
X75958919Y-50878094D02*
X75958919Y-51068570D01*
X75958919Y-51068570D02*
X75911300Y-51163808D01*
X75911300Y-51163808D02*
X75863680Y-51211427D01*
X75863680Y-51211427D02*
X75768442Y-51259046D01*
X75768442Y-51259046D02*
X75482728Y-51259046D01*
X75482728Y-51259046D02*
X75387490Y-51211427D01*
X75387490Y-51211427D02*
X75339871Y-51163808D01*
X75339871Y-51163808D02*
X75292252Y-51068570D01*
X75292252Y-51068570D02*
X75292252Y-50878094D01*
X75292252Y-50878094D02*
X75339871Y-50782856D01*
X75228752Y-41749499D02*
X76228752Y-41749499D01*
X75276371Y-41749499D02*
X75228752Y-41654261D01*
X75228752Y-41654261D02*
X75228752Y-41463785D01*
X75228752Y-41463785D02*
X75276371Y-41368547D01*
X75276371Y-41368547D02*
X75323990Y-41320928D01*
X75323990Y-41320928D02*
X75419228Y-41273309D01*
X75419228Y-41273309D02*
X75704942Y-41273309D01*
X75704942Y-41273309D02*
X75800180Y-41320928D01*
X75800180Y-41320928D02*
X75847800Y-41368547D01*
X75847800Y-41368547D02*
X75895419Y-41463785D01*
X75895419Y-41463785D02*
X75895419Y-41654261D01*
X75895419Y-41654261D02*
X75847800Y-41749499D01*
X75228752Y-40416166D02*
X75895419Y-40416166D01*
X75228752Y-40844737D02*
X75752561Y-40844737D01*
X75752561Y-40844737D02*
X75847800Y-40797118D01*
X75847800Y-40797118D02*
X75895419Y-40701880D01*
X75895419Y-40701880D02*
X75895419Y-40559023D01*
X75895419Y-40559023D02*
X75847800Y-40463785D01*
X75847800Y-40463785D02*
X75800180Y-40416166D01*
X75847800Y-39511404D02*
X75895419Y-39606642D01*
X75895419Y-39606642D02*
X75895419Y-39797118D01*
X75895419Y-39797118D02*
X75847800Y-39892356D01*
X75847800Y-39892356D02*
X75800180Y-39939975D01*
X75800180Y-39939975D02*
X75704942Y-39987594D01*
X75704942Y-39987594D02*
X75419228Y-39987594D01*
X75419228Y-39987594D02*
X75323990Y-39939975D01*
X75323990Y-39939975D02*
X75276371Y-39892356D01*
X75276371Y-39892356D02*
X75228752Y-39797118D01*
X75228752Y-39797118D02*
X75228752Y-39606642D01*
X75228752Y-39606642D02*
X75276371Y-39511404D01*
X75895419Y-39082832D02*
X74895419Y-39082832D01*
X75514466Y-38987594D02*
X75895419Y-38701880D01*
X75228752Y-38701880D02*
X75609704Y-39082832D01*
D11*
X40963356Y-87050381D02*
X40487165Y-87383714D01*
X40963356Y-87621809D02*
X39963356Y-87621809D01*
X39963356Y-87621809D02*
X39963356Y-87240857D01*
X39963356Y-87240857D02*
X40010975Y-87145619D01*
X40010975Y-87145619D02*
X40058594Y-87098000D01*
X40058594Y-87098000D02*
X40153832Y-87050381D01*
X40153832Y-87050381D02*
X40296689Y-87050381D01*
X40296689Y-87050381D02*
X40391927Y-87098000D01*
X40391927Y-87098000D02*
X40439546Y-87145619D01*
X40439546Y-87145619D02*
X40487165Y-87240857D01*
X40487165Y-87240857D02*
X40487165Y-87621809D01*
X40439546Y-86621809D02*
X40439546Y-86288476D01*
X40963356Y-86145619D02*
X40963356Y-86621809D01*
X40963356Y-86621809D02*
X39963356Y-86621809D01*
X39963356Y-86621809D02*
X39963356Y-86145619D01*
X40915737Y-85764666D02*
X40963356Y-85621809D01*
X40963356Y-85621809D02*
X40963356Y-85383714D01*
X40963356Y-85383714D02*
X40915737Y-85288476D01*
X40915737Y-85288476D02*
X40868117Y-85240857D01*
X40868117Y-85240857D02*
X40772879Y-85193238D01*
X40772879Y-85193238D02*
X40677641Y-85193238D01*
X40677641Y-85193238D02*
X40582403Y-85240857D01*
X40582403Y-85240857D02*
X40534784Y-85288476D01*
X40534784Y-85288476D02*
X40487165Y-85383714D01*
X40487165Y-85383714D02*
X40439546Y-85574190D01*
X40439546Y-85574190D02*
X40391927Y-85669428D01*
X40391927Y-85669428D02*
X40344308Y-85717047D01*
X40344308Y-85717047D02*
X40249070Y-85764666D01*
X40249070Y-85764666D02*
X40153832Y-85764666D01*
X40153832Y-85764666D02*
X40058594Y-85717047D01*
X40058594Y-85717047D02*
X40010975Y-85669428D01*
X40010975Y-85669428D02*
X39963356Y-85574190D01*
X39963356Y-85574190D02*
X39963356Y-85336095D01*
X39963356Y-85336095D02*
X40010975Y-85193238D01*
X40439546Y-84764666D02*
X40439546Y-84431333D01*
X40963356Y-84288476D02*
X40963356Y-84764666D01*
X40963356Y-84764666D02*
X39963356Y-84764666D01*
X39963356Y-84764666D02*
X39963356Y-84288476D01*
X39963356Y-84002761D02*
X39963356Y-83431333D01*
X40963356Y-83717047D02*
X39963356Y-83717047D01*
%TO.C,U1*%
X221278000Y-81264000D02*
X221278000Y-82314000D01*
X239078000Y-81314000D02*
X239078000Y-82314000D01*
X230028000Y-47164000D02*
X230328000Y-47164000D01*
X230678000Y-46714000D02*
X230178000Y-47364000D01*
X229828000Y-46864000D02*
X230528000Y-46864000D01*
X229678000Y-46714000D02*
X230678000Y-46714000D01*
X233928000Y-47664000D02*
X233928000Y-46364000D01*
X239078000Y-49264000D02*
X238128000Y-49264000D01*
X221278000Y-49264000D02*
X222278000Y-49264000D01*
X230178000Y-47364000D02*
X229678000Y-46714000D01*
X226428000Y-47664000D02*
X233928000Y-47664000D01*
X226428000Y-46364000D02*
X226428000Y-47664000D01*
X233928000Y-46364000D02*
X226428000Y-46364000D01*
X239078000Y-82314000D02*
X238068000Y-82314000D01*
X221278000Y-82314000D02*
X222278000Y-82314000D01*
X229928000Y-47014000D02*
X230428000Y-47014000D01*
X221278000Y-49264000D02*
X221278000Y-50264000D01*
X239078000Y-49264000D02*
X239078000Y-50264000D01*
%TO.C,TRRS1*%
X236474000Y-89102000D02*
X236474000Y-83002000D01*
X236474000Y-83002000D02*
X224374000Y-83002000D01*
X236474000Y-88852000D02*
X238474000Y-88852000D01*
X236474000Y-83252000D02*
X238474000Y-83252000D01*
X224374000Y-89102000D02*
X224374000Y-83002000D01*
X236474000Y-89102000D02*
X224374000Y-89102000D01*
X238474000Y-88852000D02*
X238474000Y-83252000D01*
D12*
%TO.C,SW13*%
X182356000Y-57516000D02*
X169356000Y-57516000D01*
X182856000Y-71016000D02*
X182856000Y-58016000D01*
X168856000Y-58016000D02*
X168856000Y-71016000D01*
X169356000Y-71516000D02*
X182356000Y-71516000D01*
X168856000Y-71016000D02*
G75*
G03*
X169356000Y-71516000I500000J0D01*
G01*
X169356000Y-57516000D02*
G75*
G03*
X168856000Y-58016000I0J-500000D01*
G01*
X182356000Y-71516000D02*
G75*
G03*
X182856000Y-71016000I-1J500001D01*
G01*
X182856000Y-58016000D02*
G75*
G03*
X182356000Y-57516000I-500001J-1D01*
G01*
%TO.C,SW17*%
X225198178Y-107211165D02*
X231698178Y-95952835D01*
X219573822Y-88952835D02*
X213073822Y-100211165D01*
X231515165Y-95269822D02*
X220256835Y-88769822D01*
X213256835Y-100894178D02*
X224515165Y-107394178D01*
X213073822Y-100211165D02*
G75*
G03*
X213256835Y-100894178I433013J-250000D01*
G01*
X224515166Y-107394177D02*
G75*
G03*
X225198177Y-107211165I249999J433013D01*
G01*
X220256835Y-88769822D02*
G75*
G03*
X219573822Y-88952835I-250000J-433013D01*
G01*
X231698177Y-95952834D02*
G75*
G03*
X231515165Y-95269823I-433013J249999D01*
G01*
%TO.C,SW12*%
X151356000Y-78374000D02*
X164356000Y-78374000D01*
X164856000Y-77874000D02*
X164856000Y-64874000D01*
X150856000Y-64874000D02*
X150856000Y-77874000D01*
X164356000Y-64374000D02*
X151356000Y-64374000D01*
X164356000Y-78374000D02*
G75*
G03*
X164856000Y-77874000I-1J500001D01*
G01*
X150856000Y-77874000D02*
G75*
G03*
X151356000Y-78374000I500000J0D01*
G01*
X164856000Y-64874000D02*
G75*
G03*
X164356000Y-64374000I-500001J-1D01*
G01*
X151356000Y-64374000D02*
G75*
G03*
X150856000Y-64874000I0J-500000D01*
G01*
%TO.C,SW16*%
X208905157Y-98172251D02*
X212269805Y-85615215D01*
X195735749Y-95161157D02*
X208292785Y-98525805D01*
X198746843Y-81991749D02*
X195382195Y-94548785D01*
X211916251Y-85002843D02*
X199359215Y-81638195D01*
X208292785Y-98525804D02*
G75*
G03*
X208905157Y-98172251I129408J482964D01*
G01*
X199359215Y-81638196D02*
G75*
G03*
X198746844Y-81991749I-129409J-482962D01*
G01*
X195382196Y-94548785D02*
G75*
G03*
X195735749Y-95161156I482962J-129409D01*
G01*
X212269804Y-85615215D02*
G75*
G03*
X211916251Y-85002843I-482964J129408D01*
G01*
%TO.C,SW14*%
X186856000Y-63350000D02*
X186856000Y-76350000D01*
X187356000Y-76850000D02*
X200356000Y-76850000D01*
X200356000Y-62850000D02*
X187356000Y-62850000D01*
X200856000Y-76350000D02*
X200856000Y-63350000D01*
X200856000Y-63350000D02*
G75*
G03*
X200356000Y-62850000I-500001J-1D01*
G01*
X200356000Y-76850000D02*
G75*
G03*
X200856000Y-76350000I-1J500001D01*
G01*
X186856000Y-76350000D02*
G75*
G03*
X187356000Y-76850000I500000J0D01*
G01*
X187356000Y-62850000D02*
G75*
G03*
X186856000Y-63350000I0J-500000D01*
G01*
%TO.C,SW15*%
X218336000Y-65390000D02*
X205336000Y-65390000D01*
X218836000Y-78890000D02*
X218836000Y-65890000D01*
X204836000Y-65890000D02*
X204836000Y-78890000D01*
X205336000Y-79390000D02*
X218336000Y-79390000D01*
X218836000Y-65890000D02*
G75*
G03*
X218336000Y-65390000I-500001J-1D01*
G01*
X205336000Y-65390000D02*
G75*
G03*
X204836000Y-65890000I0J-500000D01*
G01*
X204836000Y-78890000D02*
G75*
G03*
X205336000Y-79390000I500000J0D01*
G01*
X218336000Y-79390000D02*
G75*
G03*
X218836000Y-78890000I-1J500001D01*
G01*
%TO.C,SW3*%
X182356000Y-23382000D02*
X169356000Y-23382000D01*
X182856000Y-36882000D02*
X182856000Y-23882000D01*
X168856000Y-23882000D02*
X168856000Y-36882000D01*
X169356000Y-37382000D02*
X182356000Y-37382000D01*
X168856000Y-36882000D02*
G75*
G03*
X169356000Y-37382000I500000J0D01*
G01*
X182856000Y-23882000D02*
G75*
G03*
X182356000Y-23382000I-500001J-1D01*
G01*
X182356000Y-37382000D02*
G75*
G03*
X182856000Y-36882000I-1J500001D01*
G01*
X169356000Y-23382000D02*
G75*
G03*
X168856000Y-23882000I0J-500000D01*
G01*
%TO.C,SW2*%
X151356000Y-44382000D02*
X164356000Y-44382000D01*
X150856000Y-30882000D02*
X150856000Y-43882000D01*
X164356000Y-30382000D02*
X151356000Y-30382000D01*
X164856000Y-43882000D02*
X164856000Y-30882000D01*
X164856000Y-30882000D02*
G75*
G03*
X164356000Y-30382000I-500001J-1D01*
G01*
X150856000Y-43882000D02*
G75*
G03*
X151356000Y-44382000I500000J0D01*
G01*
X151356000Y-30382000D02*
G75*
G03*
X150856000Y-30882000I0J-500000D01*
G01*
X164356000Y-44382000D02*
G75*
G03*
X164856000Y-43882000I-1J500001D01*
G01*
%TO.C,SW7*%
X150856000Y-47856000D02*
X150856000Y-60856000D01*
X151356000Y-61356000D02*
X164356000Y-61356000D01*
X164856000Y-60856000D02*
X164856000Y-47856000D01*
X164356000Y-47356000D02*
X151356000Y-47356000D01*
X164856000Y-47856000D02*
G75*
G03*
X164356000Y-47356000I-500001J-1D01*
G01*
X150856000Y-60856000D02*
G75*
G03*
X151356000Y-61356000I500000J0D01*
G01*
X164356000Y-61356000D02*
G75*
G03*
X164856000Y-60856000I-1J500001D01*
G01*
X151356000Y-47356000D02*
G75*
G03*
X150856000Y-47856000I0J-500000D01*
G01*
%TO.C,SW11*%
X146356000Y-76382000D02*
X133356000Y-76382000D01*
X132856000Y-76882000D02*
X132856000Y-89882000D01*
X133356000Y-90382000D02*
X146356000Y-90382000D01*
X146856000Y-89882000D02*
X146856000Y-76882000D01*
X146856000Y-76882000D02*
G75*
G03*
X146356000Y-76382000I-500000J0D01*
G01*
X132856000Y-89882000D02*
G75*
G03*
X133356000Y-90382000I500001J1D01*
G01*
X133356000Y-76382000D02*
G75*
G03*
X132856000Y-76882000I1J-500001D01*
G01*
X146356000Y-90382000D02*
G75*
G03*
X146856000Y-89882000I0J500000D01*
G01*
%TO.C,SW10*%
X204836000Y-48872000D02*
X204836000Y-61872000D01*
X218836000Y-61872000D02*
X218836000Y-48872000D01*
X218336000Y-48372000D02*
X205336000Y-48372000D01*
X205336000Y-62372000D02*
X218336000Y-62372000D01*
X204836000Y-61872000D02*
G75*
G03*
X205336000Y-62372000I500000J0D01*
G01*
X218836000Y-48872000D02*
G75*
G03*
X218336000Y-48372000I-500001J-1D01*
G01*
X205336000Y-48372000D02*
G75*
G03*
X204836000Y-48872000I0J-500000D01*
G01*
X218336000Y-62372000D02*
G75*
G03*
X218836000Y-61872000I-1J500001D01*
G01*
%TO.C,SW9*%
X200856000Y-59332000D02*
X200856000Y-46332000D01*
X187356000Y-59832000D02*
X200356000Y-59832000D01*
X200356000Y-45832000D02*
X187356000Y-45832000D01*
X186856000Y-46332000D02*
X186856000Y-59332000D01*
X200356000Y-59832000D02*
G75*
G03*
X200856000Y-59332000I-1J500001D01*
G01*
X187356000Y-45832000D02*
G75*
G03*
X186856000Y-46332000I0J-500000D01*
G01*
X200856000Y-46332000D02*
G75*
G03*
X200356000Y-45832000I-500001J-1D01*
G01*
X186856000Y-59332000D02*
G75*
G03*
X187356000Y-59832000I500000J0D01*
G01*
%TO.C,SW6*%
X132856000Y-59882000D02*
X132856000Y-72882000D01*
X146856000Y-72882000D02*
X146856000Y-59882000D01*
X133356000Y-73382000D02*
X146356000Y-73382000D01*
X146356000Y-59382000D02*
X133356000Y-59382000D01*
X146856000Y-59882000D02*
G75*
G03*
X146356000Y-59382000I-500000J0D01*
G01*
X146356000Y-73382000D02*
G75*
G03*
X146856000Y-72882000I0J500000D01*
G01*
X132856000Y-72882000D02*
G75*
G03*
X133356000Y-73382000I500001J1D01*
G01*
X133356000Y-59382000D02*
G75*
G03*
X132856000Y-59882000I1J-500001D01*
G01*
%TO.C,SW5*%
X218356000Y-31382000D02*
X205356000Y-31382000D01*
X205356000Y-45382000D02*
X218356000Y-45382000D01*
X218856000Y-44882000D02*
X218856000Y-31882000D01*
X204856000Y-31882000D02*
X204856000Y-44882000D01*
X218856000Y-31882000D02*
G75*
G03*
X218356000Y-31382000I-500001J-1D01*
G01*
X218356000Y-45382000D02*
G75*
G03*
X218856000Y-44882000I-1J500001D01*
G01*
X205356000Y-31382000D02*
G75*
G03*
X204856000Y-31882000I0J-500000D01*
G01*
X204856000Y-44882000D02*
G75*
G03*
X205356000Y-45382000I500000J0D01*
G01*
%TO.C,SW4*%
X200356000Y-28882000D02*
X187356000Y-28882000D01*
X200856000Y-42382000D02*
X200856000Y-29382000D01*
X186856000Y-29382000D02*
X186856000Y-42382000D01*
X187356000Y-42882000D02*
X200356000Y-42882000D01*
X187356000Y-28882000D02*
G75*
G03*
X186856000Y-29382000I0J-500000D01*
G01*
X186856000Y-42382000D02*
G75*
G03*
X187356000Y-42882000I500000J0D01*
G01*
X200356000Y-42882000D02*
G75*
G03*
X200856000Y-42382000I-1J500001D01*
G01*
X200856000Y-29382000D02*
G75*
G03*
X200356000Y-28882000I-500001J-1D01*
G01*
%TO.C,SW1*%
X146356000Y-42382000D02*
X133356000Y-42382000D01*
X146856000Y-55882000D02*
X146856000Y-42882000D01*
X133356000Y-56382000D02*
X146356000Y-56382000D01*
X132856000Y-42882000D02*
X132856000Y-55882000D01*
X132856000Y-55882000D02*
G75*
G03*
X133356000Y-56382000I500001J1D01*
G01*
X146356000Y-56382000D02*
G75*
G03*
X146856000Y-55882000I0J500000D01*
G01*
X146856000Y-42882000D02*
G75*
G03*
X146356000Y-42382000I-500000J0D01*
G01*
X133356000Y-42382000D02*
G75*
G03*
X132856000Y-42882000I1J-500001D01*
G01*
D14*
%TO.C,mouse-bite-2mm-slot2*%
X129302000Y-48387000D02*
G75*
G03*
X131302000Y-48387000I1000000J0D01*
G01*
X131302000Y-54229000D02*
G75*
G03*
X129302000Y-54229000I-1000000J0D01*
G01*
%TO.C,mouse-bite-2mm-slot1*%
X131302000Y-78105000D02*
G75*
G03*
X129302000Y-78105000I-1000000J0D01*
G01*
X129302000Y-72263000D02*
G75*
G03*
X131302000Y-72263000I1000000J0D01*
G01*
D12*
%TO.C,RSW1*%
X220977000Y-84075000D02*
X221277000Y-84075000D01*
X223777000Y-87375000D02*
X223777000Y-84075000D01*
X220977000Y-87375000D02*
X220977000Y-84075000D01*
X221277000Y-87375000D02*
X220977000Y-87375000D01*
X223477000Y-87375000D02*
X223777000Y-87375000D01*
X223777000Y-84075000D02*
X223477000Y-84075000D01*
%TO.C,SW8*%
X182356000Y-40498000D02*
X169356000Y-40498000D01*
X168856000Y-40998000D02*
X168856000Y-53998000D01*
X182856000Y-53998000D02*
X182856000Y-40998000D01*
X169356000Y-54498000D02*
X182356000Y-54498000D01*
X168856000Y-53998000D02*
G75*
G03*
X169356000Y-54498000I500000J0D01*
G01*
X169356000Y-40498000D02*
G75*
G03*
X168856000Y-40998000I0J-500000D01*
G01*
X182356000Y-54498000D02*
G75*
G03*
X182856000Y-53998000I-1J500001D01*
G01*
X182856000Y-40998000D02*
G75*
G03*
X182356000Y-40498000I-500001J-1D01*
G01*
D15*
%TO.C,e*%
X165036000Y-49139500D02*
G75*
G03*
X166069866Y-53290047I20319953J2857490D01*
G01*
X205676000Y-43424500D02*
G75*
G03*
X204642135Y-39273955I-20320019J-2857506D01*
G01*
X166069867Y-39273952D02*
G75*
G03*
X165036001Y-43424500I19286116J-7008044D01*
G01*
X204642134Y-53290046D02*
G75*
G03*
X205675999Y-49139500I-19286184J7008058D01*
G01*
X178347954Y-65568135D02*
G75*
G03*
X182498500Y-66602000I7008046J19286135D01*
G01*
X188213500Y-66601999D02*
G75*
G03*
X192364047Y-65568133I-2857500J20319999D01*
G01*
X186484385Y-35546137D02*
G75*
G03*
X185356000Y-35487000I-1128385J-10735763D01*
G01*
X192364047Y-26995866D02*
G75*
G03*
X188213500Y-25962000I-7008047J-19286134D01*
G01*
X185356000Y-35487001D02*
G75*
G03*
X184227615Y-35546137I-6J-10794920D01*
G01*
X182498500Y-25962001D02*
G75*
G03*
X178347952Y-26995867I2857496J-20319982D01*
G01*
X184227615Y-57017864D02*
G75*
G03*
X185356000Y-57077000I1128379J10735785D01*
G01*
X185356000Y-57077000D02*
G75*
G03*
X186484385Y-57017863I0J10794900D01*
G01*
D12*
X187556000Y-27232000D02*
G75*
G03*
X187556000Y-27232000I-2200000J0D01*
G01*
X168506000Y-46282000D02*
G75*
G03*
X168506000Y-46282000I-2200000J0D01*
G01*
X206606000Y-46282000D02*
G75*
G03*
X206606000Y-46282000I-2200000J0D01*
G01*
X187556000Y-65332000D02*
G75*
G03*
X187556000Y-65332000I-2200000J0D01*
G01*
D16*
X183729245Y-60363867D02*
X184532191Y-59561167D01*
X184820559Y-59564261D01*
X185108927Y-59567354D01*
X184261703Y-60427491D01*
X184143778Y-60547214D01*
X184028979Y-60663763D01*
X183918525Y-60775903D01*
X183813633Y-60882396D01*
X183715521Y-60982007D01*
X183625406Y-61073500D01*
X183544507Y-61155637D01*
X183474040Y-61227182D01*
X183415224Y-61286900D01*
X183369277Y-61333554D01*
X183337416Y-61365907D01*
X183323635Y-61379903D01*
X183232791Y-61472179D01*
X183232791Y-58730309D01*
X183729245Y-58730309D01*
X183729245Y-60363867D01*
G36*
X183729245Y-60363867D02*
G01*
X184532191Y-59561167D01*
X184820559Y-59564261D01*
X185108927Y-59567354D01*
X184261703Y-60427491D01*
X184143778Y-60547214D01*
X184028979Y-60663763D01*
X183918525Y-60775903D01*
X183813633Y-60882396D01*
X183715521Y-60982007D01*
X183625406Y-61073500D01*
X183544507Y-61155637D01*
X183474040Y-61227182D01*
X183415224Y-61286900D01*
X183369277Y-61333554D01*
X183337416Y-61365907D01*
X183323635Y-61379903D01*
X183232791Y-61472179D01*
X183232791Y-58730309D01*
X183729245Y-58730309D01*
X183729245Y-60363867D01*
G37*
X184536025Y-60770398D02*
X184558728Y-60793261D01*
X184593207Y-60828792D01*
X184637476Y-60874884D01*
X184689543Y-60929430D01*
X184747422Y-60990324D01*
X184809121Y-61055459D01*
X184872654Y-61122729D01*
X184936029Y-61190027D01*
X184997259Y-61255246D01*
X185054355Y-61316281D01*
X185105327Y-61371024D01*
X185148187Y-61417369D01*
X185180945Y-61453209D01*
X185201613Y-61476438D01*
X185203906Y-61479129D01*
X185232207Y-61512764D01*
X184612193Y-61512764D01*
X184438843Y-61336695D01*
X184385101Y-61281952D01*
X184334818Y-61230439D01*
X184291002Y-61185259D01*
X184256656Y-61149513D01*
X184234788Y-61126304D01*
X184231611Y-61122812D01*
X184197729Y-61084997D01*
X184358764Y-60923653D01*
X184408477Y-60874198D01*
X184452701Y-60830873D01*
X184488848Y-60796160D01*
X184514330Y-60772540D01*
X184526559Y-60762492D01*
X184527090Y-60762309D01*
X184536025Y-60770398D01*
G36*
X184536025Y-60770398D02*
G01*
X184558728Y-60793261D01*
X184593207Y-60828792D01*
X184637476Y-60874884D01*
X184689543Y-60929430D01*
X184747422Y-60990324D01*
X184809121Y-61055459D01*
X184872654Y-61122729D01*
X184936029Y-61190027D01*
X184997259Y-61255246D01*
X185054355Y-61316281D01*
X185105327Y-61371024D01*
X185148187Y-61417369D01*
X185180945Y-61453209D01*
X185201613Y-61476438D01*
X185203906Y-61479129D01*
X185232207Y-61512764D01*
X184612193Y-61512764D01*
X184438843Y-61336695D01*
X184385101Y-61281952D01*
X184334818Y-61230439D01*
X184291002Y-61185259D01*
X184256656Y-61149513D01*
X184234788Y-61126304D01*
X184231611Y-61122812D01*
X184197729Y-61084997D01*
X184358764Y-60923653D01*
X184408477Y-60874198D01*
X184452701Y-60830873D01*
X184488848Y-60796160D01*
X184514330Y-60772540D01*
X184526559Y-60762492D01*
X184527090Y-60762309D01*
X184536025Y-60770398D01*
G37*
X185934279Y-59229650D02*
X185934471Y-59333890D01*
X185934960Y-59430635D01*
X185935710Y-59517521D01*
X185936686Y-59592183D01*
X185937855Y-59652258D01*
X185939182Y-59695381D01*
X185940631Y-59719188D01*
X185941539Y-59723218D01*
X185953970Y-59716904D01*
X185978816Y-59700561D01*
X186002950Y-59683359D01*
X186117647Y-59612637D01*
X186239863Y-59563533D01*
X186370246Y-59535857D01*
X186509447Y-59529419D01*
X186527259Y-59530087D01*
X186616894Y-59536639D01*
X186693377Y-59548576D01*
X186765029Y-59568068D01*
X186840167Y-59597285D01*
X186910018Y-59629924D01*
X187037951Y-59705217D01*
X187150871Y-59797197D01*
X187247765Y-59904186D01*
X187327623Y-60024511D01*
X187389433Y-60156496D01*
X187432185Y-60298465D01*
X187454866Y-60448744D01*
X187458427Y-60538414D01*
X187448136Y-60690892D01*
X187416780Y-60835456D01*
X187363635Y-60974692D01*
X187306380Y-61081611D01*
X187220668Y-61201904D01*
X187119055Y-61306753D01*
X187003722Y-61395075D01*
X186876847Y-61465789D01*
X186740611Y-61517812D01*
X186597192Y-61550065D01*
X186448771Y-61561464D01*
X186348525Y-61556981D01*
X186203917Y-61532100D01*
X186063349Y-61485825D01*
X185930176Y-61419846D01*
X185807756Y-61335849D01*
X185699444Y-61235523D01*
X185691050Y-61226357D01*
X185609919Y-61122237D01*
X185540227Y-61004055D01*
X185485061Y-60878192D01*
X185447508Y-60751032D01*
X185438639Y-60704582D01*
X185436026Y-60676187D01*
X185433681Y-60626115D01*
X185432212Y-60575781D01*
X185928550Y-60575781D01*
X185939122Y-60673330D01*
X185969554Y-60767349D01*
X185998208Y-60821494D01*
X186065142Y-60909777D01*
X186144623Y-60980654D01*
X186234055Y-61033147D01*
X186330841Y-61066279D01*
X186432382Y-61079073D01*
X186536083Y-61070552D01*
X186608910Y-61051264D01*
X186651907Y-61035178D01*
X186692812Y-61017818D01*
X186708979Y-61010042D01*
X186754265Y-60979038D01*
X186803588Y-60932844D01*
X186851645Y-60877388D01*
X186893130Y-60818594D01*
X186914618Y-60780267D01*
X186934799Y-60736021D01*
X186947444Y-60697413D01*
X186954801Y-60655121D01*
X186959119Y-60599818D01*
X186959401Y-60594528D01*
X186956033Y-60487283D01*
X186933177Y-60389391D01*
X186889525Y-60295968D01*
X186871755Y-60267439D01*
X186807213Y-60189535D01*
X186728396Y-60127365D01*
X186638760Y-60081869D01*
X186541761Y-60053991D01*
X186440857Y-60044671D01*
X186339505Y-60054853D01*
X186241159Y-60085478D01*
X186227156Y-60091764D01*
X186139204Y-60144713D01*
X186065214Y-60212927D01*
X186006171Y-60293273D01*
X185963058Y-60382620D01*
X185936856Y-60477833D01*
X185928550Y-60575781D01*
X185432212Y-60575781D01*
X185431628Y-60555778D01*
X185429889Y-60466589D01*
X185428486Y-60359960D01*
X185427442Y-60237304D01*
X185426778Y-60100032D01*
X185426517Y-59949558D01*
X185426514Y-59937822D01*
X185426427Y-59246108D01*
X185934131Y-58736082D01*
X185934279Y-59229650D01*
G36*
X185934279Y-59229650D02*
G01*
X185934471Y-59333890D01*
X185934960Y-59430635D01*
X185935710Y-59517521D01*
X185936686Y-59592183D01*
X185937855Y-59652258D01*
X185939182Y-59695381D01*
X185940631Y-59719188D01*
X185941539Y-59723218D01*
X185953970Y-59716904D01*
X185978816Y-59700561D01*
X186002950Y-59683359D01*
X186117647Y-59612637D01*
X186239863Y-59563533D01*
X186370246Y-59535857D01*
X186509447Y-59529419D01*
X186527259Y-59530087D01*
X186616894Y-59536639D01*
X186693377Y-59548576D01*
X186765029Y-59568068D01*
X186840167Y-59597285D01*
X186910018Y-59629924D01*
X187037951Y-59705217D01*
X187150871Y-59797197D01*
X187247765Y-59904186D01*
X187327623Y-60024511D01*
X187389433Y-60156496D01*
X187432185Y-60298465D01*
X187454866Y-60448744D01*
X187458427Y-60538414D01*
X187448136Y-60690892D01*
X187416780Y-60835456D01*
X187363635Y-60974692D01*
X187306380Y-61081611D01*
X187220668Y-61201904D01*
X187119055Y-61306753D01*
X187003722Y-61395075D01*
X186876847Y-61465789D01*
X186740611Y-61517812D01*
X186597192Y-61550065D01*
X186448771Y-61561464D01*
X186348525Y-61556981D01*
X186203917Y-61532100D01*
X186063349Y-61485825D01*
X185930176Y-61419846D01*
X185807756Y-61335849D01*
X185699444Y-61235523D01*
X185691050Y-61226357D01*
X185609919Y-61122237D01*
X185540227Y-61004055D01*
X185485061Y-60878192D01*
X185447508Y-60751032D01*
X185438639Y-60704582D01*
X185436026Y-60676187D01*
X185433681Y-60626115D01*
X185432212Y-60575781D01*
X185928550Y-60575781D01*
X185939122Y-60673330D01*
X185969554Y-60767349D01*
X185998208Y-60821494D01*
X186065142Y-60909777D01*
X186144623Y-60980654D01*
X186234055Y-61033147D01*
X186330841Y-61066279D01*
X186432382Y-61079073D01*
X186536083Y-61070552D01*
X186608910Y-61051264D01*
X186651907Y-61035178D01*
X186692812Y-61017818D01*
X186708979Y-61010042D01*
X186754265Y-60979038D01*
X186803588Y-60932844D01*
X186851645Y-60877388D01*
X186893130Y-60818594D01*
X186914618Y-60780267D01*
X186934799Y-60736021D01*
X186947444Y-60697413D01*
X186954801Y-60655121D01*
X186959119Y-60599818D01*
X186959401Y-60594528D01*
X186956033Y-60487283D01*
X186933177Y-60389391D01*
X186889525Y-60295968D01*
X186871755Y-60267439D01*
X186807213Y-60189535D01*
X186728396Y-60127365D01*
X186638760Y-60081869D01*
X186541761Y-60053991D01*
X186440857Y-60044671D01*
X186339505Y-60054853D01*
X186241159Y-60085478D01*
X186227156Y-60091764D01*
X186139204Y-60144713D01*
X186065214Y-60212927D01*
X186006171Y-60293273D01*
X185963058Y-60382620D01*
X185936856Y-60477833D01*
X185928550Y-60575781D01*
X185432212Y-60575781D01*
X185431628Y-60555778D01*
X185429889Y-60466589D01*
X185428486Y-60359960D01*
X185427442Y-60237304D01*
X185426778Y-60100032D01*
X185426517Y-59949558D01*
X185426514Y-59937822D01*
X185426427Y-59246108D01*
X185934131Y-58736082D01*
X185934279Y-59229650D01*
G37*
D11*
%TO.C,Bat+1*%
X236966000Y-51800000D02*
X236966000Y-49800000D01*
X234966000Y-49800000D02*
X234966000Y-51800000D01*
X236966000Y-49800000D02*
X234966000Y-49800000D01*
X234966000Y-51800000D02*
X236966000Y-51800000D01*
%TO.C,BatGND1*%
X223282000Y-51800000D02*
X225282000Y-51800000D01*
X225282000Y-51800000D02*
X225282000Y-49800000D01*
X225282000Y-49800000D02*
X223282000Y-49800000D01*
X223282000Y-49800000D02*
X223282000Y-51800000D01*
%TO.C,U2*%
X29826000Y-46714000D02*
X30826000Y-46714000D01*
X30176000Y-47164000D02*
X30476000Y-47164000D01*
X21426000Y-49264000D02*
X21426000Y-50264000D01*
X30826000Y-46714000D02*
X30326000Y-47364000D01*
X21426000Y-49264000D02*
X22426000Y-49264000D01*
X39226000Y-49264000D02*
X39226000Y-50264000D01*
X39226000Y-49264000D02*
X38276000Y-49264000D01*
X39226000Y-82314000D02*
X38216000Y-82314000D01*
X30076000Y-47014000D02*
X30576000Y-47014000D01*
X39226000Y-81314000D02*
X39226000Y-82314000D01*
X21426000Y-81264000D02*
X21426000Y-82314000D01*
X21426000Y-82314000D02*
X22426000Y-82314000D01*
X34076000Y-47664000D02*
X34076000Y-46364000D01*
X26576000Y-46364000D02*
X26576000Y-47664000D01*
X26576000Y-47664000D02*
X34076000Y-47664000D01*
X29976000Y-46864000D02*
X30676000Y-46864000D01*
X34076000Y-46364000D02*
X26576000Y-46364000D01*
X30326000Y-47364000D02*
X29826000Y-46714000D01*
%TO.C,TRRS2*%
X35976000Y-83002000D02*
X35976000Y-89102000D01*
X23876000Y-88852000D02*
X21876000Y-88852000D01*
X23876000Y-89102000D02*
X35976000Y-89102000D01*
X23876000Y-83002000D02*
X23876000Y-89102000D01*
X23876000Y-83002000D02*
X35976000Y-83002000D01*
X21876000Y-83252000D02*
X21876000Y-88852000D01*
X23876000Y-83252000D02*
X21876000Y-83252000D01*
D12*
%TO.C,SW15_r1*%
X41686000Y-65890000D02*
X41686000Y-78890000D01*
X55686000Y-78890000D02*
X55686000Y-65890000D01*
X55186000Y-65390000D02*
X42186000Y-65390000D01*
X42186000Y-79390000D02*
X55186000Y-79390000D01*
X41686000Y-78890000D02*
G75*
G03*
X42186000Y-79390000I500001J1D01*
G01*
X55686000Y-65890000D02*
G75*
G03*
X55186000Y-65390000I-500000J0D01*
G01*
X55186000Y-79390000D02*
G75*
G03*
X55686000Y-78890000I0J500000D01*
G01*
X42186000Y-65390000D02*
G75*
G03*
X41686000Y-65890000I1J-500001D01*
G01*
%TO.C,SW9_r1*%
X73200000Y-45832000D02*
X60200000Y-45832000D01*
X59700000Y-46332000D02*
X59700000Y-59332000D01*
X60200000Y-59832000D02*
X73200000Y-59832000D01*
X73700000Y-59332000D02*
X73700000Y-46332000D01*
X73700000Y-46332000D02*
G75*
G03*
X73200000Y-45832000I-500001J-1D01*
G01*
X60200000Y-45832000D02*
G75*
G03*
X59700000Y-46332000I0J-500000D01*
G01*
X59700000Y-59332000D02*
G75*
G03*
X60200000Y-59832000I500000J0D01*
G01*
X73200000Y-59832000D02*
G75*
G03*
X73700000Y-59332000I-1J500001D01*
G01*
%TO.C,SW13_r1*%
X91688000Y-71016000D02*
X91688000Y-58016000D01*
X91188000Y-57516000D02*
X78188000Y-57516000D01*
X78188000Y-71516000D02*
X91188000Y-71516000D01*
X77688000Y-58016000D02*
X77688000Y-71016000D01*
X77688000Y-71016000D02*
G75*
G03*
X78188000Y-71516000I500000J0D01*
G01*
X91688000Y-58016000D02*
G75*
G03*
X91188000Y-57516000I-500001J-1D01*
G01*
X91188000Y-71516000D02*
G75*
G03*
X91688000Y-71016000I-1J500001D01*
G01*
X78188000Y-57516000D02*
G75*
G03*
X77688000Y-58016000I0J-500000D01*
G01*
%TO.C,SW12_r1*%
X109714000Y-77874000D02*
X109714000Y-64874000D01*
X109214000Y-64374000D02*
X96214000Y-64374000D01*
X95714000Y-64874000D02*
X95714000Y-77874000D01*
X96214000Y-78374000D02*
X109214000Y-78374000D01*
X109214000Y-78374000D02*
G75*
G03*
X109714000Y-77874000I-1J500001D01*
G01*
X96214000Y-64374000D02*
G75*
G03*
X95714000Y-64874000I0J-500000D01*
G01*
X95714000Y-77874000D02*
G75*
G03*
X96214000Y-78374000I500000J0D01*
G01*
X109714000Y-64874000D02*
G75*
G03*
X109214000Y-64374000I-500001J-1D01*
G01*
%TO.C,SW5_r1*%
X42186000Y-45382000D02*
X55186000Y-45382000D01*
X41686000Y-31882000D02*
X41686000Y-44882000D01*
X55686000Y-44882000D02*
X55686000Y-31882000D01*
X55186000Y-31382000D02*
X42186000Y-31382000D01*
X42186000Y-31382000D02*
G75*
G03*
X41686000Y-31882000I1J-500001D01*
G01*
X55686000Y-31882000D02*
G75*
G03*
X55186000Y-31382000I-500000J0D01*
G01*
X55186000Y-45382000D02*
G75*
G03*
X55686000Y-44882000I0J500000D01*
G01*
X41686000Y-44882000D02*
G75*
G03*
X42186000Y-45382000I500001J1D01*
G01*
%TO.C,SW4_r1*%
X73200000Y-28882000D02*
X60200000Y-28882000D01*
X59700000Y-29382000D02*
X59700000Y-42382000D01*
X60200000Y-42882000D02*
X73200000Y-42882000D01*
X73700000Y-42382000D02*
X73700000Y-29382000D01*
X60200000Y-28882000D02*
G75*
G03*
X59700000Y-29382000I0J-500000D01*
G01*
X59700000Y-42382000D02*
G75*
G03*
X60200000Y-42882000I500000J0D01*
G01*
X73200000Y-42882000D02*
G75*
G03*
X73700000Y-42382000I-1J500001D01*
G01*
X73700000Y-29382000D02*
G75*
G03*
X73200000Y-28882000I-500001J-1D01*
G01*
%TO.C,SW1_r1*%
X127232000Y-42382000D02*
X114232000Y-42382000D01*
X114232000Y-56382000D02*
X127232000Y-56382000D01*
X127732000Y-55882000D02*
X127732000Y-42882000D01*
X113732000Y-42882000D02*
X113732000Y-55882000D01*
X127232000Y-56382000D02*
G75*
G03*
X127732000Y-55882000I-1J500001D01*
G01*
X127732000Y-42882000D02*
G75*
G03*
X127232000Y-42382000I-500001J-1D01*
G01*
X114232000Y-42382000D02*
G75*
G03*
X113732000Y-42882000I0J-500000D01*
G01*
X113732000Y-55882000D02*
G75*
G03*
X114232000Y-56382000I500000J0D01*
G01*
%TO.C,SW14_r1*%
X60200000Y-76850000D02*
X73200000Y-76850000D01*
X73700000Y-76350000D02*
X73700000Y-63350000D01*
X59700000Y-63350000D02*
X59700000Y-76350000D01*
X73200000Y-62850000D02*
X60200000Y-62850000D01*
X73700000Y-63350000D02*
G75*
G03*
X73200000Y-62850000I-500001J-1D01*
G01*
X59700000Y-76350000D02*
G75*
G03*
X60200000Y-76850000I500000J0D01*
G01*
X73200000Y-76850000D02*
G75*
G03*
X73700000Y-76350000I-1J500001D01*
G01*
X60200000Y-62850000D02*
G75*
G03*
X59700000Y-63350000I0J-500000D01*
G01*
%TO.C,SW3_r1*%
X78188000Y-37382000D02*
X91188000Y-37382000D01*
X91688000Y-36882000D02*
X91688000Y-23882000D01*
X91188000Y-23382000D02*
X78188000Y-23382000D01*
X77688000Y-23882000D02*
X77688000Y-36882000D01*
X78188000Y-23382000D02*
G75*
G03*
X77688000Y-23882000I0J-500000D01*
G01*
X77688000Y-36882000D02*
G75*
G03*
X78188000Y-37382000I500000J0D01*
G01*
X91188000Y-37382000D02*
G75*
G03*
X91688000Y-36882000I-1J500001D01*
G01*
X91688000Y-23882000D02*
G75*
G03*
X91188000Y-23382000I-500001J-1D01*
G01*
%TO.C,SW11_r1*%
X113732000Y-76882000D02*
X113732000Y-89882000D01*
X127232000Y-76382000D02*
X114232000Y-76382000D01*
X127732000Y-89882000D02*
X127732000Y-76882000D01*
X114232000Y-90382000D02*
X127232000Y-90382000D01*
X127732000Y-76882000D02*
G75*
G03*
X127232000Y-76382000I-500001J-1D01*
G01*
X114232000Y-76382000D02*
G75*
G03*
X113732000Y-76882000I0J-500000D01*
G01*
X127232000Y-90382000D02*
G75*
G03*
X127732000Y-89882000I-1J500001D01*
G01*
X113732000Y-89882000D02*
G75*
G03*
X114232000Y-90382000I500000J0D01*
G01*
%TO.C,SW10_r1*%
X41686000Y-48872000D02*
X41686000Y-61872000D01*
X55186000Y-48372000D02*
X42186000Y-48372000D01*
X55686000Y-61872000D02*
X55686000Y-48872000D01*
X42186000Y-62372000D02*
X55186000Y-62372000D01*
X55186000Y-62372000D02*
G75*
G03*
X55686000Y-61872000I0J500000D01*
G01*
X42186000Y-48372000D02*
G75*
G03*
X41686000Y-48872000I1J-500001D01*
G01*
X41686000Y-61872000D02*
G75*
G03*
X42186000Y-62372000I500001J1D01*
G01*
X55686000Y-48872000D02*
G75*
G03*
X55186000Y-48372000I-500000J0D01*
G01*
%TO.C,SW2_r1*%
X95714000Y-30882000D02*
X95714000Y-43882000D01*
X96214000Y-44382000D02*
X109214000Y-44382000D01*
X109714000Y-43882000D02*
X109714000Y-30882000D01*
X109214000Y-30382000D02*
X96214000Y-30382000D01*
X109214000Y-44382000D02*
G75*
G03*
X109714000Y-43882000I-1J500001D01*
G01*
X95714000Y-43882000D02*
G75*
G03*
X96214000Y-44382000I500000J0D01*
G01*
X109714000Y-30882000D02*
G75*
G03*
X109214000Y-30382000I-500001J-1D01*
G01*
X96214000Y-30382000D02*
G75*
G03*
X95714000Y-30882000I0J-500000D01*
G01*
%TO.C,SW7_r1*%
X96214000Y-61356000D02*
X109214000Y-61356000D01*
X95714000Y-47856000D02*
X95714000Y-60856000D01*
X109714000Y-60856000D02*
X109714000Y-47856000D01*
X109214000Y-47356000D02*
X96214000Y-47356000D01*
X109214000Y-61356000D02*
G75*
G03*
X109714000Y-60856000I-1J500001D01*
G01*
X95714000Y-60856000D02*
G75*
G03*
X96214000Y-61356000I500000J0D01*
G01*
X96214000Y-47356000D02*
G75*
G03*
X95714000Y-47856000I0J-500000D01*
G01*
X109714000Y-47856000D02*
G75*
G03*
X109214000Y-47356000I-500001J-1D01*
G01*
%TO.C,SW16_r1*%
X65221805Y-94548785D02*
X61857157Y-81991749D01*
X48334195Y-85615215D02*
X51698843Y-98172251D01*
X52311215Y-98525805D02*
X64868251Y-95161157D01*
X61244785Y-81638195D02*
X48687749Y-85002843D01*
X48687749Y-85002843D02*
G75*
G03*
X48334196Y-85615215I129411J-482964D01*
G01*
X61857156Y-81991749D02*
G75*
G03*
X61244785Y-81638196I-482962J-129409D01*
G01*
X51698843Y-98172251D02*
G75*
G03*
X52311215Y-98525804I482964J129411D01*
G01*
X64868251Y-95161156D02*
G75*
G03*
X65221804Y-94548785I-129409J482962D01*
G01*
%TO.C,SW8_r1*%
X78188000Y-54498000D02*
X91188000Y-54498000D01*
X91188000Y-40498000D02*
X78188000Y-40498000D01*
X91688000Y-53998000D02*
X91688000Y-40998000D01*
X77688000Y-40998000D02*
X77688000Y-53998000D01*
X77688000Y-53998000D02*
G75*
G03*
X78188000Y-54498000I500000J0D01*
G01*
X91688000Y-40998000D02*
G75*
G03*
X91188000Y-40498000I-500001J-1D01*
G01*
X78188000Y-40498000D02*
G75*
G03*
X77688000Y-40998000I0J-500000D01*
G01*
X91188000Y-54498000D02*
G75*
G03*
X91688000Y-53998000I-1J500001D01*
G01*
%TO.C,SW17_r1*%
X47530178Y-100211165D02*
X41030178Y-88952835D01*
X28905822Y-95952835D02*
X35405822Y-107211165D01*
X36088835Y-107394178D02*
X47347165Y-100894178D01*
X40347165Y-88769822D02*
X29088835Y-95269822D01*
X35405822Y-107211165D02*
G75*
G03*
X36088835Y-107394178I433013J250001D01*
G01*
X47347165Y-100894178D02*
G75*
G03*
X47530178Y-100211165I-250000J433013D01*
G01*
X29088835Y-95269822D02*
G75*
G03*
X28905822Y-95952835I250001J-433013D01*
G01*
X41030178Y-88952835D02*
G75*
G03*
X40347165Y-88769822I-433013J-250000D01*
G01*
%TO.C,SW6_r1*%
X114232000Y-73382000D02*
X127232000Y-73382000D01*
X113732000Y-59882000D02*
X113732000Y-72882000D01*
X127732000Y-72882000D02*
X127732000Y-59882000D01*
X127232000Y-59382000D02*
X114232000Y-59382000D01*
X114232000Y-59382000D02*
G75*
G03*
X113732000Y-59882000I0J-500000D01*
G01*
X127732000Y-59882000D02*
G75*
G03*
X127232000Y-59382000I-500001J-1D01*
G01*
X113732000Y-72882000D02*
G75*
G03*
X114232000Y-73382000I500000J0D01*
G01*
X127232000Y-73382000D02*
G75*
G03*
X127732000Y-72882000I-1J500001D01*
G01*
D15*
%TO.C,REF_PUCK_R*%
X68683954Y-65568135D02*
G75*
G03*
X72834500Y-66602000I7008046J19286135D01*
G01*
X96012000Y-43424500D02*
G75*
G03*
X94978135Y-39273955I-20320019J-2857506D01*
G01*
X56405867Y-39273952D02*
G75*
G03*
X55372001Y-43424500I19286116J-7008044D01*
G01*
X78549500Y-66601999D02*
G75*
G03*
X82700047Y-65568133I-2857500J20319999D01*
G01*
X55372000Y-49139500D02*
G75*
G03*
X56405866Y-53290047I20319953J2857490D01*
G01*
X75692000Y-57077000D02*
G75*
G03*
X76820385Y-57017863I0J10794900D01*
G01*
X76820385Y-35546137D02*
G75*
G03*
X75692000Y-35487000I-1128385J-10735763D01*
G01*
X82700047Y-26995866D02*
G75*
G03*
X78549500Y-25962000I-7008047J-19286134D01*
G01*
X72834500Y-25962001D02*
G75*
G03*
X68683952Y-26995867I2857496J-20319982D01*
G01*
X75692000Y-35487001D02*
G75*
G03*
X74563615Y-35546137I-6J-10794920D01*
G01*
X74563615Y-57017864D02*
G75*
G03*
X75692000Y-57077000I1128379J10735785D01*
G01*
X94978134Y-53290046D02*
G75*
G03*
X96011999Y-49139500I-19286184J7008058D01*
G01*
D12*
X77892000Y-65332000D02*
G75*
G03*
X77892000Y-65332000I-2200000J0D01*
G01*
X77892000Y-27232000D02*
G75*
G03*
X77892000Y-27232000I-2200000J0D01*
G01*
X58842000Y-46282000D02*
G75*
G03*
X58842000Y-46282000I-2200000J0D01*
G01*
X96942000Y-46282000D02*
G75*
G03*
X96942000Y-46282000I-2200000J0D01*
G01*
D16*
X76270279Y-59229650D02*
X76270471Y-59333890D01*
X76270960Y-59430635D01*
X76271710Y-59517521D01*
X76272686Y-59592183D01*
X76273855Y-59652258D01*
X76275182Y-59695381D01*
X76276631Y-59719188D01*
X76277539Y-59723218D01*
X76289970Y-59716904D01*
X76314816Y-59700561D01*
X76338950Y-59683359D01*
X76453647Y-59612637D01*
X76575863Y-59563533D01*
X76706246Y-59535857D01*
X76845447Y-59529419D01*
X76863259Y-59530087D01*
X76952894Y-59536639D01*
X77029377Y-59548576D01*
X77101029Y-59568068D01*
X77176167Y-59597285D01*
X77246018Y-59629924D01*
X77373951Y-59705217D01*
X77486871Y-59797197D01*
X77583765Y-59904186D01*
X77663623Y-60024511D01*
X77725433Y-60156496D01*
X77768185Y-60298465D01*
X77790866Y-60448744D01*
X77794427Y-60538414D01*
X77784136Y-60690892D01*
X77752780Y-60835456D01*
X77699635Y-60974692D01*
X77642380Y-61081611D01*
X77556668Y-61201904D01*
X77455055Y-61306753D01*
X77339722Y-61395075D01*
X77212847Y-61465789D01*
X77076611Y-61517812D01*
X76933192Y-61550065D01*
X76784771Y-61561464D01*
X76684525Y-61556981D01*
X76539917Y-61532100D01*
X76399349Y-61485825D01*
X76266176Y-61419846D01*
X76143756Y-61335849D01*
X76035444Y-61235523D01*
X76027050Y-61226357D01*
X75945919Y-61122237D01*
X75876227Y-61004055D01*
X75821061Y-60878192D01*
X75783508Y-60751032D01*
X75774639Y-60704582D01*
X75772026Y-60676187D01*
X75769681Y-60626115D01*
X75768212Y-60575781D01*
X76264550Y-60575781D01*
X76275122Y-60673330D01*
X76305554Y-60767349D01*
X76334208Y-60821494D01*
X76401142Y-60909777D01*
X76480623Y-60980654D01*
X76570055Y-61033147D01*
X76666841Y-61066279D01*
X76768382Y-61079073D01*
X76872083Y-61070552D01*
X76944910Y-61051264D01*
X76987907Y-61035178D01*
X77028812Y-61017818D01*
X77044979Y-61010042D01*
X77090265Y-60979038D01*
X77139588Y-60932844D01*
X77187645Y-60877388D01*
X77229130Y-60818594D01*
X77250618Y-60780267D01*
X77270799Y-60736021D01*
X77283444Y-60697413D01*
X77290801Y-60655121D01*
X77295119Y-60599818D01*
X77295401Y-60594528D01*
X77292033Y-60487283D01*
X77269177Y-60389391D01*
X77225525Y-60295968D01*
X77207755Y-60267439D01*
X77143213Y-60189535D01*
X77064396Y-60127365D01*
X76974760Y-60081869D01*
X76877761Y-60053991D01*
X76776857Y-60044671D01*
X76675505Y-60054853D01*
X76577159Y-60085478D01*
X76563156Y-60091764D01*
X76475204Y-60144713D01*
X76401214Y-60212927D01*
X76342171Y-60293273D01*
X76299058Y-60382620D01*
X76272856Y-60477833D01*
X76264550Y-60575781D01*
X75768212Y-60575781D01*
X75767628Y-60555778D01*
X75765889Y-60466589D01*
X75764486Y-60359960D01*
X75763442Y-60237304D01*
X75762778Y-60100032D01*
X75762517Y-59949558D01*
X75762514Y-59937822D01*
X75762427Y-59246108D01*
X76270131Y-58736082D01*
X76270279Y-59229650D01*
G36*
X76270279Y-59229650D02*
G01*
X76270471Y-59333890D01*
X76270960Y-59430635D01*
X76271710Y-59517521D01*
X76272686Y-59592183D01*
X76273855Y-59652258D01*
X76275182Y-59695381D01*
X76276631Y-59719188D01*
X76277539Y-59723218D01*
X76289970Y-59716904D01*
X76314816Y-59700561D01*
X76338950Y-59683359D01*
X76453647Y-59612637D01*
X76575863Y-59563533D01*
X76706246Y-59535857D01*
X76845447Y-59529419D01*
X76863259Y-59530087D01*
X76952894Y-59536639D01*
X77029377Y-59548576D01*
X77101029Y-59568068D01*
X77176167Y-59597285D01*
X77246018Y-59629924D01*
X77373951Y-59705217D01*
X77486871Y-59797197D01*
X77583765Y-59904186D01*
X77663623Y-60024511D01*
X77725433Y-60156496D01*
X77768185Y-60298465D01*
X77790866Y-60448744D01*
X77794427Y-60538414D01*
X77784136Y-60690892D01*
X77752780Y-60835456D01*
X77699635Y-60974692D01*
X77642380Y-61081611D01*
X77556668Y-61201904D01*
X77455055Y-61306753D01*
X77339722Y-61395075D01*
X77212847Y-61465789D01*
X77076611Y-61517812D01*
X76933192Y-61550065D01*
X76784771Y-61561464D01*
X76684525Y-61556981D01*
X76539917Y-61532100D01*
X76399349Y-61485825D01*
X76266176Y-61419846D01*
X76143756Y-61335849D01*
X76035444Y-61235523D01*
X76027050Y-61226357D01*
X75945919Y-61122237D01*
X75876227Y-61004055D01*
X75821061Y-60878192D01*
X75783508Y-60751032D01*
X75774639Y-60704582D01*
X75772026Y-60676187D01*
X75769681Y-60626115D01*
X75768212Y-60575781D01*
X76264550Y-60575781D01*
X76275122Y-60673330D01*
X76305554Y-60767349D01*
X76334208Y-60821494D01*
X76401142Y-60909777D01*
X76480623Y-60980654D01*
X76570055Y-61033147D01*
X76666841Y-61066279D01*
X76768382Y-61079073D01*
X76872083Y-61070552D01*
X76944910Y-61051264D01*
X76987907Y-61035178D01*
X77028812Y-61017818D01*
X77044979Y-61010042D01*
X77090265Y-60979038D01*
X77139588Y-60932844D01*
X77187645Y-60877388D01*
X77229130Y-60818594D01*
X77250618Y-60780267D01*
X77270799Y-60736021D01*
X77283444Y-60697413D01*
X77290801Y-60655121D01*
X77295119Y-60599818D01*
X77295401Y-60594528D01*
X77292033Y-60487283D01*
X77269177Y-60389391D01*
X77225525Y-60295968D01*
X77207755Y-60267439D01*
X77143213Y-60189535D01*
X77064396Y-60127365D01*
X76974760Y-60081869D01*
X76877761Y-60053991D01*
X76776857Y-60044671D01*
X76675505Y-60054853D01*
X76577159Y-60085478D01*
X76563156Y-60091764D01*
X76475204Y-60144713D01*
X76401214Y-60212927D01*
X76342171Y-60293273D01*
X76299058Y-60382620D01*
X76272856Y-60477833D01*
X76264550Y-60575781D01*
X75768212Y-60575781D01*
X75767628Y-60555778D01*
X75765889Y-60466589D01*
X75764486Y-60359960D01*
X75763442Y-60237304D01*
X75762778Y-60100032D01*
X75762517Y-59949558D01*
X75762514Y-59937822D01*
X75762427Y-59246108D01*
X76270131Y-58736082D01*
X76270279Y-59229650D01*
G37*
X74872025Y-60770398D02*
X74894728Y-60793261D01*
X74929207Y-60828792D01*
X74973476Y-60874884D01*
X75025543Y-60929430D01*
X75083422Y-60990324D01*
X75145121Y-61055459D01*
X75208654Y-61122729D01*
X75272029Y-61190027D01*
X75333259Y-61255246D01*
X75390355Y-61316281D01*
X75441327Y-61371024D01*
X75484187Y-61417369D01*
X75516945Y-61453209D01*
X75537613Y-61476438D01*
X75539906Y-61479129D01*
X75568207Y-61512764D01*
X74948193Y-61512764D01*
X74774843Y-61336695D01*
X74721101Y-61281952D01*
X74670818Y-61230439D01*
X74627002Y-61185259D01*
X74592656Y-61149513D01*
X74570788Y-61126304D01*
X74567611Y-61122812D01*
X74533729Y-61084997D01*
X74694764Y-60923653D01*
X74744477Y-60874198D01*
X74788701Y-60830873D01*
X74824848Y-60796160D01*
X74850330Y-60772540D01*
X74862559Y-60762492D01*
X74863090Y-60762309D01*
X74872025Y-60770398D01*
G36*
X74872025Y-60770398D02*
G01*
X74894728Y-60793261D01*
X74929207Y-60828792D01*
X74973476Y-60874884D01*
X75025543Y-60929430D01*
X75083422Y-60990324D01*
X75145121Y-61055459D01*
X75208654Y-61122729D01*
X75272029Y-61190027D01*
X75333259Y-61255246D01*
X75390355Y-61316281D01*
X75441327Y-61371024D01*
X75484187Y-61417369D01*
X75516945Y-61453209D01*
X75537613Y-61476438D01*
X75539906Y-61479129D01*
X75568207Y-61512764D01*
X74948193Y-61512764D01*
X74774843Y-61336695D01*
X74721101Y-61281952D01*
X74670818Y-61230439D01*
X74627002Y-61185259D01*
X74592656Y-61149513D01*
X74570788Y-61126304D01*
X74567611Y-61122812D01*
X74533729Y-61084997D01*
X74694764Y-60923653D01*
X74744477Y-60874198D01*
X74788701Y-60830873D01*
X74824848Y-60796160D01*
X74850330Y-60772540D01*
X74862559Y-60762492D01*
X74863090Y-60762309D01*
X74872025Y-60770398D01*
G37*
X74065245Y-60363867D02*
X74868191Y-59561167D01*
X75156559Y-59564261D01*
X75444927Y-59567354D01*
X74597703Y-60427491D01*
X74479778Y-60547214D01*
X74364979Y-60663763D01*
X74254525Y-60775903D01*
X74149633Y-60882396D01*
X74051521Y-60982007D01*
X73961406Y-61073500D01*
X73880507Y-61155637D01*
X73810040Y-61227182D01*
X73751224Y-61286900D01*
X73705277Y-61333554D01*
X73673416Y-61365907D01*
X73659635Y-61379903D01*
X73568791Y-61472179D01*
X73568791Y-58730309D01*
X74065245Y-58730309D01*
X74065245Y-60363867D01*
G36*
X74065245Y-60363867D02*
G01*
X74868191Y-59561167D01*
X75156559Y-59564261D01*
X75444927Y-59567354D01*
X74597703Y-60427491D01*
X74479778Y-60547214D01*
X74364979Y-60663763D01*
X74254525Y-60775903D01*
X74149633Y-60882396D01*
X74051521Y-60982007D01*
X73961406Y-61073500D01*
X73880507Y-61155637D01*
X73810040Y-61227182D01*
X73751224Y-61286900D01*
X73705277Y-61333554D01*
X73673416Y-61365907D01*
X73659635Y-61379903D01*
X73568791Y-61472179D01*
X73568791Y-58730309D01*
X74065245Y-58730309D01*
X74065245Y-60363867D01*
G37*
D11*
%TO.C,BatGNDr1*%
X35068000Y-49800000D02*
X35068000Y-51800000D01*
X35068000Y-51800000D02*
X37068000Y-51800000D01*
X37068000Y-49800000D02*
X35068000Y-49800000D01*
X37068000Y-51800000D02*
X37068000Y-49800000D01*
%TO.C,Bat+r1*%
X23638000Y-49800000D02*
X23638000Y-51800000D01*
X25638000Y-51800000D02*
X25638000Y-49800000D01*
X25638000Y-49800000D02*
X23638000Y-49800000D01*
X23638000Y-51800000D02*
X25638000Y-51800000D01*
D12*
%TO.C,RSW2*%
X36873000Y-87375000D02*
X36573000Y-87375000D01*
X36573000Y-84075000D02*
X36873000Y-84075000D01*
X39073000Y-87375000D02*
X39373000Y-87375000D01*
X39373000Y-87375000D02*
X39373000Y-84075000D01*
X36573000Y-87375000D02*
X36573000Y-84075000D01*
X39373000Y-84075000D02*
X39073000Y-84075000D01*
%TD*%
D17*
%TO.C,U1*%
X237789400Y-53086000D03*
X237789400Y-55626000D03*
X237789400Y-58166000D03*
X237789400Y-60706000D03*
X237789400Y-63246000D03*
X237789400Y-65786000D03*
X237789400Y-68326000D03*
X237789400Y-70866000D03*
X237789400Y-73406000D03*
X237789400Y-75946000D03*
X237789400Y-78486000D03*
X237789400Y-81026000D03*
X222569400Y-81026000D03*
X222569400Y-78486000D03*
X222569400Y-75946000D03*
X222569400Y-73406000D03*
X222569400Y-70866000D03*
X222569400Y-68326000D03*
X222569400Y-65786000D03*
X222569400Y-63246000D03*
X222569400Y-60706000D03*
X222569400Y-58166000D03*
X222569400Y-55626000D03*
X222569400Y-53086000D03*
%TD*%
D18*
%TO.C,Bat+1*%
X235966000Y-50800000D03*
%TD*%
%TO.C,BatGND1*%
X224282000Y-50800000D03*
%TD*%
D17*
%TO.C,U2*%
X37937400Y-53086000D03*
X37937400Y-55626000D03*
X37937400Y-58166000D03*
X37937400Y-60706000D03*
X37937400Y-63246000D03*
X37937400Y-65786000D03*
X37937400Y-68326000D03*
X37937400Y-70866000D03*
X37937400Y-73406000D03*
X37937400Y-75946000D03*
X37937400Y-78486000D03*
X37937400Y-81026000D03*
X22717400Y-81026000D03*
X22717400Y-78486000D03*
X22717400Y-75946000D03*
X22717400Y-73406000D03*
X22717400Y-70866000D03*
X22717400Y-68326000D03*
X22717400Y-65786000D03*
X22717400Y-63246000D03*
X22717400Y-60706000D03*
X22717400Y-58166000D03*
X22717400Y-55626000D03*
X22717400Y-53086000D03*
%TD*%
D18*
%TO.C,BatGNDr1*%
X36068000Y-50800000D03*
%TD*%
%TO.C,Bat+r1*%
X24638000Y-50800000D03*
%TD*%
M02*
